<svg width="22" height="22" viewBox="0 0 22 22" fill="none" xmlns="http://www.w3.org/2000/svg">
<g id="Group">
<path id="Vector" d="M19.0667 0.806667V0.733333C19.0667 0.33 18.7367 0 18.3333 0C17.93 0 17.6 0.33 17.6 0.733333H15.4C15.4 0.33 15.07 0 14.6667 0C14.2633 0 13.9333 0.33 13.9333 0.733333H11.7333C11.7333 0.33 11.4033 0 11 0C10.5967 0 10.2667 0.33 10.2667 0.733333H8.06667C8.06667 0.33 7.73667 0 7.33333 0C6.93 0 6.6 0.33 6.6 0.733333H4.4C4.4 0.33 4.07 0 3.66667 0C3.26333 0 2.93333 0.33 2.93333 0.733333V0.806667C1.26133 1.15133 0 2.63267 0 4.4V18.3333C0 20.3573 1.64267 22 3.66667 22H10.2667C10.67 22 11 21.67 11 21.2667C11 20.8633 10.67 20.5333 10.2667 20.5333H3.66667C2.45667 20.5333 1.46667 19.5433 1.46667 18.3333V7.33333H20.5333V10.2667C20.5333 10.67 20.8633 11 21.2667 11C21.67 11 22 10.67 22 10.2667V4.4C22 2.63267 20.7387 1.15133 19.0667 0.806667ZM1.46667 5.86667V4.4C1.46667 3.43933 2.09733 2.62533 2.96267 2.32467C3.02133 2.66933 3.30733 2.93333 3.66667 2.93333C4.07 2.93333 4.4 2.60333 4.4 2.2H6.6C6.6 2.60333 6.93 2.93333 7.33333 2.93333C7.73667 2.93333 8.06667 2.60333 8.06667 2.2H10.2667C10.2667 2.60333 10.5967 2.93333 11 2.93333C11.4033 2.93333 11.7333 2.60333 11.7333 2.2H13.9333C13.9333 2.60333 14.2633 2.93333 14.6667 2.93333C15.07 2.93333 15.4 2.60333 15.4 2.2H17.6C17.6 2.60333 17.93 2.93333 18.3333 2.93333C18.6927 2.93333 18.9787 2.66933 19.0373 2.32467C19.9027 2.62533 20.5333 3.43933 20.5333 4.4V5.86667H1.46667ZM16.1333 10.2667C12.8993 10.2667 10.2667 12.8993 10.2667 16.1333C10.2667 19.3673 12.8993 22 16.1333 22C19.3673 22 22 19.3673 22 16.1333C22 12.8993 19.3673 10.2667 16.1333 10.2667ZM16.1333 20.5333C13.706 20.5333 11.7333 18.5607 11.7333 16.1333C11.7333 13.706 13.706 11.7333 16.1333 11.7333C18.5607 11.7333 20.5333 13.706 20.5333 16.1333C20.5333 18.5607 18.5607 20.5333 16.1333 20.5333ZM18.3333 16.1333C18.3333 16.5367 18.0033 16.8667 17.6 16.8667H16.1333C15.73 16.8667 15.4 16.5367 15.4 16.1333V13.9333C15.4 13.53 15.73 13.2 16.1333 13.2C16.5367 13.2 16.8667 13.53 16.8667 13.9333V15.4H17.6C18.0033 15.4 18.3333 15.73 18.3333 16.1333ZM5.13333 10.2667C5.13333 10.67 4.80333 11 4.4 11C3.99667 11 3.66667 10.67 3.66667 10.2667C3.66667 9.86333 3.99667 9.53333 4.4 9.53333C4.80333 9.53333 5.13333 9.86333 5.13333 10.2667ZM5.13333 13.9333C5.13333 14.3367 4.80333 14.6667 4.4 14.6667C3.99667 14.6667 3.66667 14.3367 3.66667 13.9333C3.66667 13.53 3.99667 13.2 4.4 13.2C4.80333 13.2 5.13333 13.53 5.13333 13.9333ZM9.53333 10.2667C9.53333 10.67 9.20333 11 8.8 11C8.39667 11 8.06667 10.67 8.06667 10.2667C8.06667 9.86333 8.39667 9.53333 8.8 9.53333C9.20333 9.53333 9.53333 9.86333 9.53333 10.2667ZM9.53333 13.9333C9.53333 14.3367 9.20333 14.6667 8.8 14.6667C8.39667 14.6667 8.06667 14.3367 8.06667 13.9333C8.06667 13.53 8.39667 13.2 8.8 13.2C9.20333 13.2 9.53333 13.53 9.53333 13.9333ZM5.13333 17.6C5.13333 18.0033 4.80333 18.3333 4.4 18.3333C3.99667 18.3333 3.66667 18.0033 3.66667 17.6C3.66667 17.1967 3.99667 16.8667 4.4 16.8667C4.80333 16.8667 5.13333 17.1967 5.13333 17.6ZM9.53333 17.6C9.53333 18.0033 9.20333 18.3333 8.8 18.3333C8.39667 18.3333 8.06667 18.0033 8.06667 17.6C8.06667 17.1967 8.39667 16.8667 8.8 16.8667C9.20333 16.8667 9.53333 17.1967 9.53333 17.6Z" fill="#AAAAAA"/>
</g>
</svg>
