<svg width="24" height="24" viewBox="0 0 24 24" fill="none" xmlns="http://www.w3.org/2000/svg">
<path d="M19.9132 17.7041H8.08815L4.61019 3.04697M4.61019 3.04697L7.23469 2M4.61019 3.04697L2 4.09388M5.30578 5.8388H22L19.9132 14.9123H7.39256L5.30578 5.8388Z" stroke="#737373" stroke-width="1.4" stroke-linecap="round" stroke-linejoin="round"/>
<path d="M18.524 21.8919C19.2923 21.8919 19.9152 21.267 19.9152 20.496C19.9152 19.7251 19.2923 19.1001 18.524 19.1001C17.7557 19.1001 17.1328 19.7251 17.1328 20.496C17.1328 21.267 17.7557 21.8919 18.524 21.8919Z" stroke="#737373" stroke-width="1.4" stroke-linecap="round" stroke-linejoin="round"/>
<path d="M9.48103 21.8919C10.2494 21.8919 10.8722 21.267 10.8722 20.496C10.8722 19.7251 10.2494 19.1001 9.48103 19.1001C8.7127 19.1001 8.08984 19.7251 8.08984 20.496C8.08984 21.267 8.7127 21.8919 9.48103 21.8919Z" stroke="#737373" stroke-width="1.4" stroke-linecap="round" stroke-linejoin="round"/>
</svg>
