<svg width="24" height="24" viewBox="0 0 24 24" fill="none" xmlns="http://www.w3.org/2000/svg">
<path fill-rule="evenodd" clip-rule="evenodd" d="M3 3.69231C3 3.5087 3.07294 3.33261 3.20277 3.20277C3.33261 3.07294 3.5087 3 3.69231 3H9.23077C9.41438 3 9.59047 3.07294 9.7203 3.20277C9.85014 3.33261 9.92308 3.5087 9.92308 3.69231V9.23077C9.92308 9.41438 9.85014 9.59047 9.7203 9.7203C9.59047 9.85014 9.41438 9.92308 9.23077 9.92308H3.69231C3.5087 9.92308 3.33261 9.85014 3.20277 9.7203C3.07294 9.59047 3 9.41438 3 9.23077V3.69231ZM4.38462 4.38462V8.53846H8.53846V4.38462H4.38462ZM3 14.7692C3 14.5856 3.07294 14.4095 3.20277 14.2797C3.33261 14.1499 3.5087 14.0769 3.69231 14.0769H9.23077C9.41438 14.0769 9.59047 14.1499 9.7203 14.2797C9.85014 14.4095 9.92308 14.5856 9.92308 14.7692V20.3077C9.92308 20.4913 9.85014 20.6674 9.7203 20.7972C9.59047 20.9271 9.41438 21 9.23077 21H3.69231C3.5087 21 3.33261 20.9271 3.20277 20.7972C3.07294 20.6674 3 20.4913 3 20.3077V14.7692ZM4.38462 15.4615V19.6154H8.53846V15.4615H4.38462ZM14.0769 14.7692C14.0769 14.5856 14.1499 14.4095 14.2797 14.2797C14.4095 14.1499 14.5856 14.0769 14.7692 14.0769H20.3077C20.4913 14.0769 20.6674 14.1499 20.7972 14.2797C20.9271 14.4095 21 14.5856 21 14.7692V20.3077C21 20.4913 20.9271 20.6674 20.7972 20.7972C20.6674 20.9271 20.4913 21 20.3077 21H14.7692C14.5856 21 14.4095 20.9271 14.2797 20.7972C14.1499 20.6674 14.0769 20.4913 14.0769 20.3077V14.7692ZM15.4615 15.4615V19.6154H19.6154V15.4615H15.4615ZM14.0769 3.69231C14.0769 3.5087 14.1499 3.33261 14.2797 3.20277C14.4095 3.07294 14.5856 3 14.7692 3H20.3077C20.4913 3 20.6674 3.07294 20.7972 3.20277C20.9271 3.33261 21 3.5087 21 3.69231V9.23077C21 9.41438 20.9271 9.59047 20.7972 9.7203C20.6674 9.85014 20.4913 9.92308 20.3077 9.92308H14.7692C14.5856 9.92308 14.4095 9.85014 14.2797 9.7203C14.1499 9.59047 14.0769 9.41438 14.0769 9.23077V3.69231ZM15.4615 4.38462V8.53846H19.6154V4.38462H15.4615ZM12 3C12.1836 3 12.3597 3.07294 12.4895 3.20277C12.6194 3.33261 12.6923 3.5087 12.6923 3.69231V12C12.6923 12.1836 12.6194 12.3597 12.4895 12.4895C12.3597 12.6194 12.1836 12.6923 12 12.6923C11.8164 12.6923 11.6403 12.6194 11.5105 12.4895C11.3806 12.3597 11.3077 12.1836 11.3077 12V3.69231C11.3077 3.5087 11.3806 3.33261 11.5105 3.20277C11.6403 3.07294 11.8164 3 12 3ZM12 14.0769C12.1836 14.0769 12.3597 14.1499 12.4895 14.2797C12.6194 14.4095 12.6923 14.5856 12.6923 14.7692V20.3077C12.6923 20.4913 12.6194 20.6674 12.4895 20.7972C12.3597 20.9271 12.1836 21 12 21C11.8164 21 11.6403 20.9271 11.5105 20.7972C11.3806 20.6674 11.3077 20.4913 11.3077 20.3077V14.7692C11.3077 14.5856 11.3806 14.4095 11.5105 14.2797C11.6403 14.1499 11.8164 14.0769 12 14.0769Z" fill="#737373"/>
<path fill-rule="evenodd" clip-rule="evenodd" d="M3 11.9995C3 11.8159 3.07294 11.6398 3.20277 11.51C3.33261 11.3801 3.5087 11.3072 3.69231 11.3072H12C12.1836 11.3072 12.3597 11.3801 12.4895 11.51C12.6194 11.6398 12.6923 11.8159 12.6923 11.9995C12.6923 12.1831 12.6194 12.3592 12.4895 12.489C12.3597 12.6189 12.1836 12.6918 12 12.6918H3.69231C3.5087 12.6918 3.33261 12.6189 3.20277 12.489C3.07294 12.3592 3 12.1831 3 11.9995ZM14.0769 11.9995C14.0769 11.8159 14.1499 11.6398 14.2797 11.51C14.4095 11.3801 14.5856 11.3072 14.7692 11.3072H20.3077C20.4913 11.3072 20.6674 11.3801 20.7972 11.51C20.9271 11.6398 21 11.8159 21 11.9995C21 12.1831 20.9271 12.3592 20.7972 12.489C20.6674 12.6189 20.4913 12.6918 20.3077 12.6918H14.7692C14.5856 12.6918 14.4095 12.6189 14.2797 12.489C14.1499 12.3592 14.0769 12.1831 14.0769 11.9995Z" fill="#737373"/>
</svg>
