<svg width="40" height="40" viewBox="0 0 40 40" fill="none" xmlns="http://www.w3.org/2000/svg">
<g id="Frame 2147207276">
<g id="Group">
<path id="Vector" d="M28.8632 32.9999C30.2256 32.9999 31.5321 32.4587 32.4954 31.4954C33.4588 30.5321 33.9999 29.2256 33.9999 27.8632C34.0022 27.3905 33.9362 26.9199 33.8042 26.466C33.7773 26.3768 33.7322 26.2942 33.6718 26.2234C33.6114 26.1525 33.5369 26.0949 33.4532 26.0542L27.682 23.172C27.5553 23.1071 27.4114 23.0839 27.2708 23.1057C27.1301 23.1276 27 23.1933 26.899 23.2935L24.712 25.4805C22.2918 24.7782 20.0883 23.4756 18.3064 21.6936C16.5244 19.9117 15.2218 17.7082 14.5195 15.288L16.7065 13.101C16.8067 13 16.8724 12.8699 16.8942 12.7292C16.9161 12.5886 16.8929 12.4447 16.828 12.318L13.9458 6.5468C13.9051 6.46306 13.8475 6.38865 13.7766 6.32824C13.7058 6.26784 13.6232 6.22275 13.534 6.1958C13.0801 6.06377 12.6095 5.99785 12.1368 6.00005C10.7744 6.00005 9.4679 6.54124 8.50457 7.50457C7.54125 8.46789 7.00006 9.77444 7.00006 11.1368C6.99323 14.0088 7.55584 16.8536 8.65536 19.5068C9.75487 22.16 11.3695 24.5689 13.4058 26.5942C15.4311 28.6305 17.84 30.2451 20.4932 31.3446C23.1464 32.4442 25.9912 33.0068 28.8632 32.9999ZM12.1368 7.35005C12.3839 7.34998 12.6304 7.37485 12.8725 7.4243L15.4038 12.4868L13.2843 14.6063C13.2085 14.693 13.1534 14.7957 13.123 14.9068C13.0926 15.0178 13.0877 15.1343 13.1088 15.2475C13.1203 15.3283 13.1406 15.4075 13.1695 15.4838C13.9228 18.198 15.3675 20.6703 17.3622 22.6591C19.3569 24.6479 21.8336 26.0852 24.55 26.8305C24.6355 26.8608 24.7236 26.8834 24.8132 26.898C24.9227 26.9208 25.0361 26.9162 25.1434 26.8844C25.2506 26.8526 25.3482 26.7946 25.4275 26.7157L27.547 24.5962L32.6095 27.1275C32.6476 27.3707 32.6612 27.6172 32.65 27.8632C32.6482 28.867 32.2486 29.8291 31.5389 30.5389C30.8291 31.2486 29.867 31.6482 28.8632 31.6499C26.1687 31.6572 23.4995 31.1294 21.0106 30.0969C18.5216 29.0645 16.2625 27.5481 14.3643 25.6357C12.4519 23.7375 10.9355 21.4784 9.90305 18.9894C8.87063 16.5005 8.34276 13.8313 8.35006 11.1368C8.35184 10.133 8.75137 9.17089 9.46114 8.46113C10.1709 7.75136 11.133 7.35183 12.1368 7.35005Z" fill="#737373"/>
<path id="Vector_2" d="M20.4997 14.775C21.7528 14.775 22.9547 15.2728 23.8408 16.1589C24.7269 17.045 25.2247 18.2468 25.2247 19.5C25.2247 19.679 25.2958 19.8507 25.4224 19.9773C25.549 20.1039 25.7207 20.175 25.8997 20.175C26.0787 20.175 26.2504 20.1039 26.377 19.9773C26.5036 19.8507 26.5747 19.679 26.5747 19.5C26.5747 17.8888 25.9346 16.3436 24.7954 15.2043C23.6561 14.0651 22.1109 13.425 20.4997 13.425C20.3207 13.425 20.149 13.4961 20.0224 13.6227C19.8958 13.7493 19.8247 13.921 19.8247 14.1C19.8247 14.279 19.8958 14.4507 20.0224 14.5773C20.149 14.7039 20.3207 14.775 20.4997 14.775ZM20.4997 8.70003C23.364 8.70003 26.111 9.83788 28.1364 11.8633C30.1618 13.8886 31.2997 16.6357 31.2997 19.5C31.2997 19.679 31.3708 19.8507 31.4974 19.9773C31.6239 20.1039 31.7956 20.175 31.9747 20.175C32.1537 20.175 32.3254 20.1039 32.452 19.9773C32.5785 19.8507 32.6497 19.679 32.6497 19.5C32.6497 16.2776 31.3696 13.1872 29.091 10.9087C26.8125 8.63012 23.7221 7.35004 20.4997 7.35004C20.3207 7.35004 20.149 7.42115 20.0224 7.54774C19.8958 7.67433 19.8247 7.84601 19.8247 8.02503C19.8247 8.20405 19.8958 8.37574 20.0224 8.50233C20.149 8.62892 20.3207 8.70003 20.4997 8.70003Z" fill="#737373"/>
</g>
</g>
</svg>
