<svg width="40" height="40" viewBox="0 0 40 40" fill="none" xmlns="http://www.w3.org/2000/svg">
<path d="M21.39 20.5L32.595 9.295C33.135 8.755 33.135 7.945 32.595 7.405C32.055 6.865 31.245 6.865 30.705 7.405L19.5 18.61L8.295 7.405C7.755 6.865 6.945 6.865 6.405 7.405C5.865 7.945 5.865 8.755 6.405 9.295L17.61 20.5L6.405 31.705C5.865 32.245 5.865 33.055 6.405 33.595C6.945 34.135 7.755 34.135 8.295 33.595L19.5 22.39L30.705 33.595C31.245 34.135 32.055 34.135 32.595 33.595C33.135 33.055 33.135 32.245 32.595 31.705L21.39 20.5Z" fill="#EC1313"/>
</svg>
