<svg width="24" height="24" viewBox="0 0 24 24" fill="none" xmlns="http://www.w3.org/2000/svg">
<path d="M14.624 18.2947C14.8229 18.2947 15.0137 18.2149 15.1544 18.0728C15.295 17.9306 15.374 17.7378 15.374 17.5368V9.95789C15.374 9.75689 15.295 9.56412 15.1544 9.42198C15.0137 9.27985 14.8229 9.2 14.624 9.2C14.4251 9.2 14.2343 9.27985 14.0937 9.42198C13.953 9.56412 13.874 9.75689 13.874 9.95789V17.5368C13.874 17.7378 13.953 17.9306 14.0937 18.0728C14.2343 18.2149 14.4251 18.2947 14.624 18.2947ZM9.37402 18.2947C9.57294 18.2947 9.7637 18.2149 9.90435 18.0728C10.045 17.9306 10.124 17.7378 10.124 17.5368V9.95789C10.124 9.75689 10.045 9.56412 9.90435 9.42198C9.7637 9.27985 9.57294 9.2 9.37402 9.2C9.17511 9.2 8.98435 9.27985 8.84369 9.42198C8.70304 9.56412 8.62402 9.75689 8.62402 9.95789V17.5368C8.62402 17.7378 8.70304 17.9306 8.84369 18.0728C8.98435 18.2149 9.17511 18.2947 9.37402 18.2947ZM14.999 3.51579C15.1979 3.51579 15.3887 3.43594 15.5294 3.29381C15.67 3.15167 15.749 2.9589 15.749 2.75789C15.749 2.55689 15.67 2.36412 15.5294 2.22198C15.3887 2.07985 15.1979 2 14.999 2H8.99902C8.80011 2 8.60935 2.07985 8.46869 2.22198C8.32804 2.36412 8.24902 2.55689 8.24902 2.75789C8.24902 2.9589 8.32804 3.15167 8.46869 3.29381C8.60935 3.43594 8.80011 3.51579 8.99902 3.51579H14.999Z" fill="#202020"/>
<path d="M3.75 4.2737C3.55109 4.2737 3.36032 4.35355 3.21967 4.49569C3.07902 4.63782 3 4.83059 3 5.0316C3 5.2326 3.07902 5.42538 3.21967 5.56751C3.36032 5.70964 3.55109 5.78949 3.75 5.78949H4.5V19.7348C4.5 21.4476 5.88 22.8421 7.575 22.8421H16.425C18.12 22.8421 19.5 21.4476 19.5 19.7348V5.78949H20.25C20.4489 5.78949 20.6397 5.70964 20.7803 5.56751C20.921 5.42538 21 5.2326 21 5.0316C21 4.83059 20.921 4.63782 20.7803 4.49569C20.6397 4.35355 20.4489 4.2737 20.25 4.2737H5.25H3.75ZM18 5.78949V19.7348C18 20.1569 17.8341 20.5617 17.5387 20.8602C17.2433 21.1587 16.8427 21.3263 16.425 21.3263H7.575C7.15728 21.3263 6.75668 21.1587 6.46131 20.8602C6.16594 20.5617 6 20.1569 6 19.7348V5.78949H18Z" fill="#202020"/>
</svg>
