<svg width="40" height="40" viewBox="0 0 40 40" fill="none" xmlns="http://www.w3.org/2000/svg">
<path fill-rule="evenodd" clip-rule="evenodd" d="M12.1034 32.7369L12.5523 33.5303C12.5526 33.5308 12.5528 33.5312 12.5531 33.5316C12.912 34.17 12.6844 34.9846 12.0497 35.343L10.5109 36.2152C10.5104 36.2155 10.5098 36.2158 10.5093 36.2161C9.87089 36.575 9.05633 36.3475 8.69772 35.7124L4.17245 27.7165C3.81032 27.0775 4.03794 26.2623 4.6734 25.9033L6.21406 25.0311L6.21452 25.0308C6.84972 24.6721 7.66454 24.8976 8.02628 25.5328L8.02694 25.534L8.39397 26.1826L12.4439 23.8378C13.6496 23.1406 14.8811 22.684 16.2053 23.114C17.5016 23.5343 19.6179 24.4402 21.7776 24.8304C21.8007 24.8346 21.8234 24.8403 21.8457 24.8476C22.9233 25.1965 23.5791 26.2857 23.2848 27.38C23.2343 27.568 23.1655 27.7413 23.0795 27.8981C23.3349 27.8308 23.5843 27.7275 23.8291 27.5848L29.3162 24.3891C31.2867 23.2411 32.5998 23.3611 33.3435 23.86C33.9802 24.2872 34.2747 25.0167 34.2557 25.7327C34.2365 26.4558 33.8928 27.147 33.3257 27.4962L23.3692 33.6263C22.3274 34.2692 21.1862 34.4201 20.004 34.1047L20.0035 34.1045L12.9901 32.2249L12.1034 32.7369ZM8.90856 27.0918L11.5888 31.8277L12.6551 31.212C12.7145 31.1776 12.7801 31.1554 12.8481 31.1464C12.9161 31.1375 12.9853 31.142 13.0515 31.1598L20.2735 33.0953C21.1681 33.3339 22.0322 33.2238 22.8205 32.7372L22.821 32.7369L32.7779 26.6066C33.0415 26.4442 33.1795 26.1183 33.207 25.7842C33.2495 25.2696 33.0074 24.7019 32.371 24.5685C31.7862 24.446 30.9627 24.6391 29.8421 25.2919L24.3552 28.4875C23.4801 28.9974 22.5629 29.1383 21.5632 28.9792L21.5615 28.9789L20.8812 28.8682L20.8805 28.8681C20.8735 28.8669 20.8664 28.8656 20.8594 28.8642L20.8587 28.864C19.6208 28.61 18.4728 28.236 17.1989 27.8936C16.9205 27.8188 16.7552 27.532 16.83 27.2536C16.9048 26.9752 17.1916 26.8098 17.47 26.8847C18.7156 27.2194 19.8383 27.5865 21.0476 27.8363C21.6741 27.9061 22.1318 27.6454 22.2758 27.1089L22.2759 27.1087C22.422 26.5654 22.082 26.038 21.5539 25.8517C19.3552 25.4483 17.2028 24.5357 15.883 24.1077L15.8827 24.1077C14.8511 23.7727 13.9062 24.199 12.967 24.7422L8.90856 27.0918ZM7.11828 26.0495L7.11789 26.0489C7.03966 25.9127 6.86486 25.8634 6.72833 25.9405L5.18813 26.8124L5.18767 26.8127C5.05146 26.8896 5.0038 27.0645 5.08137 27.2013L5.0815 27.2016L9.6069 35.1979L9.60716 35.1983C9.68428 35.3348 9.8596 35.3825 9.99685 35.3057L11.5346 34.4341L11.5352 34.4337C11.6718 34.3566 11.7196 34.1812 11.6426 34.0439L7.11828 26.0495ZM6.52095 26.902C6.87022 26.85 7.19454 27.0911 7.24652 27.4404C7.29641 27.7897 7.05527 28.116 6.706 28.1659C6.35673 28.2179 6.03241 27.9746 5.98043 27.6254C5.93054 27.2761 6.17168 26.9518 6.52095 26.902ZM15.397 9.6921C15.3969 9.6004 15.4211 9.51032 15.4669 9.43091C15.5128 9.3515 15.5787 9.28556 15.6581 9.23973L18.3995 7.65695L20.6388 6.36422L23.3802 4.78145C23.4596 4.7356 23.5497 4.71146 23.6414 4.71146C23.7331 4.71146 23.8231 4.7356 23.9025 4.78145L31.6246 9.23973C31.704 9.28557 31.7699 9.35151 31.8158 9.43092C31.8616 9.51033 31.8858 9.6004 31.8858 9.6921V18.6087C31.8858 18.7003 31.8616 18.7904 31.8158 18.8698C31.7699 18.9492 31.704 19.0152 31.6246 19.061L23.9025 23.5193C23.8231 23.5652 23.7331 23.5893 23.6414 23.5893C23.5497 23.5893 23.4596 23.5652 23.3802 23.5193L15.6581 19.061C15.5787 19.0152 15.5128 18.9492 15.4669 18.8698C15.4211 18.7904 15.3969 18.7003 15.397 18.6087V9.6921ZM18.6607 8.71253L16.9641 9.6921L23.6414 13.5472L25.338 12.5676L18.6607 8.71253ZM20.8999 7.41973L19.7054 8.10932L26.3827 11.9645L27.5772 11.2749L20.8999 7.41973ZM30.3187 9.6921L23.6414 5.83702L21.9446 6.81659L28.6219 10.6717L30.3187 9.6921ZM24.1637 22.1621L30.841 18.3071V10.5968L29.1444 11.5764V14.7866C29.1444 14.8783 29.1202 14.9684 29.0744 15.0478C29.0285 15.1272 28.9626 15.1931 28.8832 15.239L26.6439 16.5317C26.5645 16.5776 26.4744 16.6018 26.3827 16.6018C26.291 16.6018 26.2009 16.5776 26.1215 16.5318C26.042 16.4859 25.9761 16.42 25.9303 16.3405C25.8844 16.2611 25.8603 16.171 25.8604 16.0793V13.4724L24.1637 14.452V22.1621ZM16.4417 10.5968V18.3071L23.119 22.1621V14.452L16.4417 10.5968ZM28.0996 12.1796L26.9051 12.8692V15.1746L28.0996 14.485V12.1796ZM30.7857 6.54307C30.7498 6.67685 30.6622 6.7909 30.5423 6.86017C30.4223 6.92943 30.2798 6.94823 30.1459 6.91245C30.0122 6.87653 29.8981 6.78897 29.8288 6.66901C29.7596 6.54905 29.7408 6.4065 29.7766 6.27268L30.2818 4.38706C30.3177 4.25329 30.4053 4.13925 30.5252 4.07C30.6452 4.00075 30.7877 3.98196 30.9215 4.01775C31.0553 4.05365 31.1694 4.1412 31.2387 4.26117C31.3079 4.38114 31.3267 4.5237 31.2909 4.65752L30.7857 6.54307ZM33.4549 12.6715C33.3211 12.6354 33.2072 12.5478 33.138 12.4277C33.0689 12.3077 33.0502 12.1651 33.0862 12.0313C33.1611 11.753 33.4479 11.5877 33.7263 11.6626L35.6132 12.1701C35.8916 12.245 36.0569 12.5319 35.982 12.8103C35.9071 13.0887 35.6202 13.2539 35.3418 13.179L33.4549 12.6715ZM33.3886 9.05657C33.2686 9.12576 33.126 9.14448 32.9922 9.10862C32.8585 9.07276 32.7444 8.98525 32.6751 8.86532C32.6058 8.74533 32.5871 8.60277 32.6229 8.46897C32.6588 8.33517 32.7463 8.22107 32.8662 8.15176L34.56 7.17396C34.6799 7.10474 34.8225 7.086 34.9563 7.12185C35.0901 7.1577 35.2042 7.24521 35.2735 7.36514C35.3427 7.48514 35.3614 7.62769 35.3256 7.76148C35.2897 7.89527 35.2022 8.00937 35.0823 8.0787L33.3886 9.05657ZM17.5061 6.27268C17.5419 6.4065 17.5231 6.54905 17.4539 6.66901C17.3846 6.78897 17.2706 6.87653 17.1368 6.91245C17.0029 6.94823 16.8604 6.92943 16.7404 6.86017C16.6205 6.7909 16.5329 6.67685 16.497 6.54307L15.9917 4.65752C15.9559 4.5237 15.9747 4.38114 16.044 4.26117C16.1133 4.1412 16.2273 4.05365 16.3611 4.01775C16.4949 3.98196 16.6375 4.00075 16.7574 4.07C16.8774 4.13925 16.965 4.25329 17.0009 4.38706L17.5061 6.27268ZM13.5564 11.6626C13.6902 11.6267 13.8327 11.6454 13.9527 11.7145C14.0728 11.7836 14.1604 11.8976 14.1965 12.0313C14.2324 12.1651 14.2138 12.3077 14.1446 12.4277C14.0755 12.5478 13.9615 12.6354 13.8278 12.6715L11.9408 13.179C11.6625 13.2539 11.3756 13.0887 11.3007 12.8103C11.2259 12.5319 11.391 12.245 11.6695 12.1701L13.5564 11.6626ZM14.4164 8.15176C14.5363 8.22107 14.6239 8.33517 14.6597 8.46897C14.6956 8.60277 14.6768 8.74533 14.6076 8.86532C14.4635 9.11501 14.1437 9.20068 13.894 9.05657L12.2004 8.0787C12.0805 8.00939 11.993 7.8953 11.9571 7.7615C11.9213 7.62769 11.94 7.48513 12.0092 7.36514C12.0785 7.24521 12.1926 7.1577 12.3264 7.12185C12.4602 7.086 12.6028 7.10474 12.7228 7.17396L14.4164 8.15176Z" fill="#9C9C9C"/>
</svg>
