<svg width="100" height="100" viewBox="0 0 100 100" fill="none" xmlns="http://www.w3.org/2000/svg">
<path d="M44.6482 5.17643C47.6323 2.29009 52.3677 2.29009 55.3518 5.17643V5.17643C57.4705 7.22565 60.5733 7.88517 63.3423 6.87485V6.87485C67.2424 5.4518 71.5684 7.37786 73.1205 11.2284V11.2284C74.2225 13.9622 76.7888 15.8267 79.7293 16.03V16.03C83.8711 16.3163 87.0397 19.8354 86.8915 23.9844V23.9844C86.7863 26.93 88.3723 29.6771 90.9759 31.0589V31.0589C94.6432 33.005 96.1065 37.5086 94.2836 41.2386V41.2386C92.9893 43.8868 93.3209 47.0416 95.1374 49.3628V49.3628C97.696 52.6323 97.2011 57.3418 94.0186 60.0079V60.0079C91.7592 61.9007 90.7789 64.9175 91.4943 67.777V67.777C92.5018 71.8045 90.1341 75.9054 86.1424 77.0466V77.0466C83.3084 77.8568 81.1859 80.2141 80.6764 83.1173V83.1173C79.9587 87.2064 76.1277 89.9898 72.0169 89.4088V89.4088C69.0984 88.9962 66.2005 90.2864 64.5542 92.7314V92.7314C62.2354 96.1751 57.6035 97.1596 54.0845 94.9568V94.9568C51.5861 93.3928 48.4139 93.3928 45.9155 94.9568V94.9568C42.3965 97.1596 37.7646 96.1751 35.4458 92.7314V92.7314C33.7995 90.2864 30.9016 88.9962 27.9831 89.4088V89.4088C23.8723 89.9898 20.0413 87.2064 19.3236 83.1173V83.1173C18.8141 80.2141 16.6916 77.8568 13.8576 77.0466V77.0466C9.86585 75.9054 7.49816 71.8045 8.50574 67.777V67.777C9.22108 64.9175 8.24085 61.9007 5.9814 60.0078V60.0078C2.79894 57.3418 2.30396 52.6323 4.86256 49.3628V49.3628C6.67909 47.0416 7.01067 43.8868 5.71645 41.2386V41.2386C3.89352 37.5086 5.35684 33.005 9.02406 31.0589V31.0589C11.6277 29.6771 13.2137 26.93 13.1085 23.9844V23.9844C12.9603 19.8354 16.1289 16.3163 20.2707 16.03V16.03C23.2112 15.8267 25.7775 13.9622 26.8795 11.2284V11.2284C28.4316 7.37786 32.7576 5.4518 36.6577 6.87485V6.87485C39.4267 7.88517 42.5295 7.22565 44.6482 5.17643V5.17643Z" fill="#148ABF"/>
<path d="M28.7473 49.394L41.5418 64.6057C41.9339 65.072 42.6298 65.132 43.096 64.7399L74.9584 37.9408" stroke="white" stroke-width="4.41226"/>
</svg>
