<svg width="24" height="24" viewBox="0 0 24 24" fill="none" xmlns="http://www.w3.org/2000/svg">
<path d="M22.0489 5.7041C21.4325 4.70608 20.5298 3.92638 19.4637 3.47127C18.2557 2.95353 16.899 2.86034 15.5402 3.20244C14.2951 3.51598 13.0822 4.196 12 5.18251C10.9176 4.19592 9.70468 3.51584 8.45936 3.20235C7.10055 2.86012 5.74372 2.9534 4.53578 3.47149C3.46969 3.92674 2.56699 4.7066 1.95073 5.70476C1.30534 6.74654 0.977016 8.01346 1.00125 9.36838C1.10884 15.3919 9.89606 20.8692 11.6565 21.9061C11.761 21.9676 11.8794 22 12 22C12.1206 22 12.2391 21.9676 12.3435 21.9061C14.1041 20.869 22.8921 15.3908 22.9988 9.36733C23.0228 8.01249 22.6943 6.74571 22.0489 5.7041ZM21.624 9.3421C21.5897 11.2897 20.3182 13.5603 17.9475 15.9083C15.752 18.0827 13.2547 19.7216 12 20.4843C10.7453 19.7218 8.24838 18.0831 6.0531 15.9086C3.68225 13.5607 2.4108 11.2903 2.376 9.34276C2.33801 7.21623 3.34447 5.5053 5.06825 4.76595C5.6332 4.52501 6.2397 4.4021 6.85193 4.4045C8.43297 4.4045 10.1054 5.18602 11.5098 6.64418C11.5737 6.71061 11.65 6.76337 11.7342 6.79938C11.8183 6.8354 11.9087 6.85395 11.9999 6.85395C12.0912 6.85395 12.1815 6.8354 12.2657 6.79938C12.3498 6.76337 12.4261 6.71061 12.4901 6.64418C14.4411 4.61844 16.9094 3.89875 18.9311 4.76582C20.6551 5.50491 21.6617 7.21558 21.624 9.34197V9.3421Z" fill="#202020"/>
</svg>
