<svg width="24" height="24" viewBox="0 0 24 24" fill="none" xmlns="http://www.w3.org/2000/svg">
<path d="M6.60067 15.6499V22.3H6.25086C5.60128 22.3 4.97828 22.0419 4.51891 21.5825C4.05954 21.123 3.80145 20.4998 3.80145 19.85V13.5499V12.8499H3.10145H2.05164C1.74058 12.8499 1.58422 12.4727 1.80445 12.2525L11.2526 2.80243C11.2526 2.80241 11.2527 2.80238 11.2527 2.80236C11.3183 2.7368 11.4072 2.7 11.4999 2.7C11.5926 2.7 11.6815 2.7368 11.7471 2.80236C11.7471 2.80238 11.7471 2.80241 11.7472 2.80243L21.1953 12.2525C21.4161 12.4733 21.2595 12.8499 20.9481 12.8499H19.8983H19.1983V13.5499V19.85C19.1983 20.4998 18.9402 21.123 18.4809 21.5825C18.0215 22.0419 17.3985 22.3 16.7489 22.3H16.3991V15.65C16.3991 15.6499 16.3991 15.6499 16.3991 15.6499C16.3992 14.6679 16.024 13.723 15.3505 13.0086C14.6769 12.294 13.7558 11.864 12.7755 11.8063L12.7649 11.8057L12.7543 11.8054L12.5696 11.8002L12.5596 11.7999H12.5497H10.4501C9.42911 11.7999 8.44998 12.2055 7.72809 12.9276C7.0062 13.6496 6.60067 14.6289 6.60067 15.6499ZM12.5497 15.2999C12.6424 15.2999 12.7314 15.3368 12.797 15.4024C12.8626 15.468 12.8995 15.557 12.8995 15.6499V22.3H10.1003V15.65C10.1003 15.65 10.1003 15.65 10.1003 15.6499C10.1003 15.5642 10.1318 15.4815 10.1887 15.4174C10.2424 15.3571 10.3152 15.3173 10.3946 15.3045L10.471 15.2999H12.5497Z" stroke="#0C89BF" stroke-width="1.4"/>
</svg>
