<svg width="40" height="40" viewBox="0 0 40 40" fill="none" xmlns="http://www.w3.org/2000/svg">
<path d="M38.902 22.8512L36.9785 19.9082C36.1291 18.6077 34.6861 17.8311 33.1174 17.8311H28.143V14.9686C28.143 13.2207 26.7216 11.7994 24.9738 11.7994H15.6615C15.139 9.07045 12.7369 7 9.8577 7C6.59753 7 3.94544 9.65245 3.94544 12.9123C3.94544 14.9621 4.99502 16.7702 6.58401 17.8312H1.60347C1.27002 17.8312 1.00009 18.1011 1.00009 18.4345C1.00009 18.7679 1.27002 19.0378 1.60338 19.0378H7.6351V20.2441H5.22209C5.14289 20.2441 5.06445 20.2597 4.99128 20.2901C4.9181 20.3204 4.85162 20.3648 4.79563 20.4209C4.73963 20.4769 4.69523 20.5434 4.66495 20.6166C4.63467 20.6898 4.61911 20.7682 4.61915 20.8474C4.61911 20.9266 4.63467 21.005 4.66495 21.0782C4.69524 21.1514 4.73965 21.2179 4.79565 21.2739C4.85164 21.3299 4.91813 21.3743 4.9913 21.4046C5.06448 21.4349 5.1429 21.4504 5.22209 21.4504H7.63501V22.6566H1.6033C1.52407 22.6566 1.44561 22.6722 1.3724 22.7025C1.2992 22.7328 1.23268 22.7772 1.17665 22.8332C1.12063 22.8892 1.07619 22.9557 1.04588 23.0289C1.01557 23.1021 0.999977 23.1806 1 23.2598C0.999954 23.3391 1.01553 23.4175 1.04583 23.4908C1.07613 23.564 1.12056 23.6305 1.17659 23.6865C1.23262 23.7426 1.29915 23.787 1.37236 23.8173C1.44558 23.8476 1.52405 23.8632 1.6033 23.8632H7.63501V26.5346C6.57165 27.0036 5.82548 28.0645 5.82548 29.2995V29.8948C5.82548 30.0548 5.88903 30.2082 6.00215 30.3214C6.11527 30.4345 6.2687 30.4981 6.42869 30.4981H11.7784C12.1215 31.9739 13.4448 33.0784 15.0237 33.0784C16.6032 33.0784 17.926 31.9739 18.2691 30.4981H29.8738C30.2172 31.9739 31.5405 33.0784 33.1191 33.0784C34.6979 33.0784 36.0214 31.9739 36.3645 30.4981H38.3971C38.4763 30.4981 38.5547 30.4825 38.6279 30.4522C38.7011 30.4219 38.7676 30.3775 38.8236 30.3214C38.8796 30.2654 38.924 30.1989 38.9543 30.1257C38.9845 30.0525 39.0001 29.974 39 29.8948V23.1812C39 23.064 38.966 22.9493 38.9019 22.8512H38.902ZM5.15176 12.9122C5.15176 10.3174 7.26294 8.20615 9.8577 8.20615C12.4528 8.20615 14.5637 10.3174 14.5637 12.9122C14.5637 15.5069 12.4529 17.6182 9.8577 17.6182C7.26294 17.6182 5.15176 15.5069 5.15176 12.9122ZM8.84125 23.8632H10.0475C10.1267 23.8632 10.2052 23.8477 10.2784 23.8174C10.3517 23.7871 10.4182 23.7426 10.4742 23.6866C10.5303 23.6305 10.5747 23.564 10.605 23.4908C10.6353 23.4175 10.6509 23.3391 10.6509 23.2598C10.6509 23.1806 10.6353 23.1021 10.605 23.0289C10.5747 22.9557 10.5303 22.8891 10.4742 22.8331C10.4182 22.7771 10.3516 22.7326 10.2784 22.7023C10.2052 22.672 10.1267 22.6565 10.0475 22.6565H8.84125V21.4503H13.0638C13.143 21.4503 13.2214 21.4347 13.2945 21.4045C13.3677 21.3742 13.4342 21.3298 13.4902 21.2738C13.5462 21.2178 13.5906 21.1513 13.6208 21.0781C13.6511 21.0049 13.6667 20.9265 13.6666 20.8473C13.6667 20.7681 13.6511 20.6897 13.6208 20.6165C13.5906 20.5433 13.5462 20.4768 13.4902 20.4208C13.4342 20.3647 13.3677 20.3203 13.2945 20.29C13.2213 20.2597 13.1429 20.244 13.0637 20.244H8.84125V19.0376H16.6825C17.0156 19.0376 17.2858 18.7678 17.2858 18.4343C17.2858 18.1009 17.0156 17.831 16.6825 17.831H13.1314C14.6959 16.7863 15.7337 15.0165 15.7654 13.0057H24.9742C26.0562 13.0057 26.9366 13.8864 26.9366 14.9685V26.2756H8.84893C8.84655 26.2756 8.84407 26.2763 8.84134 26.2763L8.84125 23.8632ZM26.9366 29.2915H18.324C18.2291 28.5978 17.9212 27.9724 17.4667 27.482H26.9367L26.9366 29.2915ZM8.84885 27.482H12.5808C12.1267 27.9724 11.8184 28.5978 11.7239 29.2915H7.03171C7.03578 28.2934 7.84963 27.482 8.84885 27.482ZM15.0238 31.8721C13.8506 31.8721 12.8956 30.9175 12.8956 29.744C12.8956 28.5709 13.8506 27.6159 15.0238 27.6159C16.1972 27.6159 17.1519 28.5709 17.1519 29.744C17.1519 30.9175 16.1972 31.8721 15.0238 31.8721ZM33.1191 31.8721C31.946 31.8721 30.9911 30.9175 30.9911 29.744C30.9911 28.5709 31.946 27.6159 33.1192 27.6159C34.2926 27.6159 35.2473 28.5709 35.2473 29.744C35.2473 30.9175 34.2926 31.8721 33.1191 31.8721ZM37.7938 29.2915H36.4193C36.1973 27.6669 34.8037 26.4096 33.1191 26.4096C31.4344 26.4096 30.0411 27.6669 29.8188 29.2915H28.1428V19.0378H33.1174C34.2767 19.0378 35.3429 19.6096 35.9689 20.5678L37.7938 23.3606V29.2915Z" fill="#148ABF"/>
<path d="M34.1093 29.7446C34.1093 30.2896 33.6675 30.7314 33.1225 30.7314C32.5775 30.7314 32.1357 30.2896 32.1357 29.7446C32.1357 29.1996 32.5775 28.7578 33.1225 28.7578C33.6675 28.7578 34.1093 29.1996 34.1093 29.7446ZM16.0138 29.7446C16.0138 30.2896 15.5721 30.7314 15.0271 30.7314C14.4825 30.7314 14.0407 30.2896 14.0407 29.7446C14.0407 29.1996 14.4825 28.7578 15.0271 28.7578C15.5721 28.7578 16.0138 29.1996 16.0138 29.7446ZM10.6542 12.9128V10.2738C10.6542 10.1946 10.6386 10.1162 10.6083 10.043C10.578 9.96978 10.5335 9.90329 10.4775 9.84729C10.4214 9.79129 10.3549 9.74689 10.2817 9.71662C10.2085 9.68635 10.13 9.67082 10.0508 9.6709C9.97159 9.67085 9.89316 9.68642 9.81999 9.7167C9.74681 9.74698 9.68033 9.7914 9.62433 9.84739C9.56833 9.90339 9.52392 9.96988 9.49364 10.043C9.46335 10.1162 9.44779 10.1946 9.44784 10.2738V12.716L8.21677 14.4048C8.17007 14.4688 8.13643 14.5413 8.11778 14.6182C8.09913 14.6952 8.09583 14.775 8.10808 14.8532C8.12032 14.9314 8.14787 15.0065 8.18914 15.074C8.23041 15.1416 8.2846 15.2004 8.3486 15.247C8.45157 15.3226 8.57602 15.3634 8.70379 15.3633C8.79891 15.3634 8.8927 15.341 8.97747 15.2978C9.06223 15.2547 9.13556 15.192 9.19143 15.115L10.5385 13.268C10.6137 13.1648 10.6542 13.0404 10.6542 12.9128ZM32.9192 19.6413H31.7653C31.6861 19.6412 31.6076 19.6568 31.5344 19.6871C31.4612 19.7174 31.3947 19.7619 31.3386 19.8179C31.2826 19.874 31.2382 19.9405 31.2079 20.0137C31.1776 20.0869 31.162 20.1654 31.162 20.2446V24.4667C31.162 24.546 31.1776 24.6244 31.2079 24.6976C31.2382 24.7709 31.2826 24.8374 31.3387 24.8934C31.3947 24.9494 31.4612 24.9939 31.5344 25.0242C31.6076 25.0545 31.6861 25.0701 31.7653 25.07H35.8249C36.2032 25.07 36.5418 24.8743 36.7316 24.5475C36.9214 24.2206 36.9218 23.8292 36.7347 23.5031L35.3262 21.0377C34.8344 20.177 33.9118 19.6413 32.9192 19.6413ZM32.3687 23.8638V20.8479H32.9192C33.1951 20.8482 33.4661 20.9212 33.7048 21.0596C33.9435 21.1981 34.1414 21.3971 34.2786 21.6365L35.5512 23.8638H32.3687Z" fill="#148ABF"/>
</svg>
