<svg width="40" height="40" viewBox="0 0 40 40" fill="none" xmlns="http://www.w3.org/2000/svg">
<g id="Frame 2147207273">
<path id="Vector" d="M18.2496 31.875C18.2496 32.1734 18.1311 32.4595 17.9201 32.6705C17.7092 32.8815 17.423 33 17.1247 33H9.24993C8.65321 33 8.08093 32.7629 7.65899 32.341C7.23705 31.919 7 31.3467 7 30.75V8.25C7 7.65326 7.23705 7.08097 7.65899 6.65901C8.08093 6.23705 8.65321 6 9.24993 6H17.1247C17.423 6 17.7092 6.11853 17.9201 6.32951C18.1311 6.54048 18.2496 6.82663 18.2496 7.125C18.2496 7.42337 18.1311 7.70952 17.9201 7.92049C17.7092 8.13147 17.423 8.25 17.1247 8.25H9.24993V30.75H17.1247C17.423 30.75 17.7092 30.8685 17.9201 31.0795C18.1311 31.2905 18.2496 31.5766 18.2496 31.875ZM33.6701 18.7041L28.0452 13.0791C27.8342 12.868 27.5479 12.7494 27.2493 12.7494C26.9508 12.7494 26.6645 12.868 26.4534 13.0791C26.2423 13.2902 26.1237 13.5765 26.1237 13.875C26.1237 14.1735 26.2423 14.4598 26.4534 14.6709L30.1588 18.375H17.1247C16.8263 18.375 16.5402 18.4935 16.3292 18.7045C16.1182 18.9155 15.9997 19.2016 15.9997 19.5C15.9997 19.7984 16.1182 20.0845 16.3292 20.2955C16.5402 20.5065 16.8263 20.625 17.1247 20.625H30.1588L26.4534 24.3291C26.2423 24.5402 26.1237 24.8265 26.1237 25.125C26.1237 25.4235 26.2423 25.7098 26.4534 25.9209C26.6645 26.132 26.9508 26.2506 27.2493 26.2506C27.5479 26.2506 27.8342 26.132 28.0452 25.9209L33.6701 20.2959C33.7747 20.1915 33.8576 20.0674 33.9142 19.9308C33.9709 19.7942 34 19.6478 34 19.5C34 19.3522 33.9709 19.2058 33.9142 19.0692C33.8576 18.9326 33.7747 18.8085 33.6701 18.7041Z" fill="#EC1313"/>
</g>
</svg>
