<svg width="24" height="24" viewBox="0 0 24 24" fill="none" xmlns="http://www.w3.org/2000/svg">
<path d="M1.95437 6.54026L1.95306 6.53895L1.95485 6.51596C1.96076 6.43988 1.98571 6.36649 2.0274 6.30256C2.06908 6.23864 2.12617 6.18621 2.19341 6.1501L2.19437 6.14961L12.3054 0.998999C12.3054 0.998979 12.3055 0.99896 12.3055 0.998941M1.95437 6.54026L12.3055 0.998941M1.95437 6.54026L1.95412 6.55295C1.95381 6.57446 1.95353 6.60587 1.95326 6.64643C1.95273 6.7276 1.95228 6.84588 1.9519 6.99592C1.95113 7.29602 1.95064 7.72341 1.95035 8.23563C1.94977 9.2601 1.94999 10.6241 1.95044 11.9881L1.95186 15.7413C1.95201 16.2537 1.95208 16.6813 1.95198 16.9817L1.95171 17.3314L1.95146 17.4247L1.95131 17.449L1.95124 17.4543L1.95061 17.4587H1.95113C1.95119 17.5399 1.97342 17.6196 2.01541 17.6891C2.05739 17.7586 2.11754 17.8153 2.18938 17.8531C2.18939 17.8531 2.1894 17.8531 2.18941 17.8532L12.3005 23.1861L12.3014 23.1865C12.3654 23.2186 12.4359 23.2354 12.5074 23.2356C12.5789 23.2358 12.6495 23.2195 12.7137 23.1879L12.7146 23.1874L18.2377 20.3109C18.3427 20.2562 18.4216 20.1621 18.4572 20.0492C18.4928 19.9363 18.482 19.814 18.4274 19.709C18.3727 19.604 18.2786 19.5251 18.1657 19.4895C18.0528 19.454 17.9304 19.4647 17.8254 19.5194L12.9514 22.0581L12.8935 12.467L15.2163 11.2232L15.1689 13.5792L15.1689 13.5798C15.1682 13.6546 15.1863 13.7284 15.2214 13.7945C15.2565 13.8606 15.3075 13.9168 15.3699 13.9582C15.4323 13.9995 15.504 14.0246 15.5785 14.0312C15.6531 14.0377 15.7281 14.0255 15.7967 13.9957L15.7972 13.9955L17.1295 13.4012L1.95437 6.54026ZM12.3055 0.998941C12.3693 0.966255 12.4401 0.949469 12.5118 0.950013C12.5835 0.950557 12.654 0.968431 12.7174 1.00211V1.00211L12.7174 1.00212L22.8131 6.36673L22.8131 6.36671M12.3055 0.998941L22.8131 6.36671M22.8131 6.36671L22.8145 6.36753M22.8131 6.36671L22.8145 6.36753M22.8145 6.36753C22.8839 6.40735 22.9419 6.46421 22.9831 6.53273C23.0243 6.60125 23.0473 6.67916 23.05 6.75907L23.05 6.75906M22.8145 6.36753L23.05 6.75906M23.05 6.75906V6.76073V6.75906ZM19.2702 12.2018L19.2702 12.2014L19.2702 9.05221L22.1576 7.50589V17.2627L19.4103 18.6949L19.4102 18.6949L19.4334 18.7392L19.2702 12.2018ZM19.2702 12.2018C19.2697 12.2651 19.2558 12.3275 19.2294 12.385C19.2031 12.4425 19.1649 12.4937 19.1174 12.5355C19.0699 12.5772 19.0141 12.6084 18.9537 12.627C18.8933 12.6457 18.8296 12.6514 18.7668 12.6437L18.7664 12.6436M19.2702 12.2018L18.7664 12.6436M18.7664 12.6436L17.6787 12.5017M18.7664 12.6436L17.6787 12.5017M17.6787 12.5017L17.3505 13.1861L17.6787 12.5017ZM19.8226 19.4864L19.8226 19.4864L22.7868 17.885L22.81 17.9293L22.8099 17.9293L19.8226 19.4864ZM17.4739 11.5742L17.4739 11.5742L18.3778 11.6928V9.52971L16.1186 10.7396L16.0752 12.8939L16.6164 12.6526L17.0134 11.8241C17.054 11.7392 17.1204 11.6693 17.2031 11.6244C17.2858 11.5795 17.3806 11.562 17.4739 11.5742ZM5.76454 5.33176L3.34115 6.56641L7.14987 8.80208C7.18199 8.84303 7.20572 8.88991 7.21972 8.94004C7.24799 9.04128 7.23489 9.1496 7.1833 9.24118C7.1317 9.33275 7.04584 9.40008 6.9446 9.42836C6.89447 9.44236 6.84208 9.44634 6.79041 9.44009C6.73874 9.43384 6.68881 9.41748 6.64347 9.39193L6.61894 9.4355L6.61892 9.43549L2.84275 7.3102V17.1892L12.0586 22.0495L12.0007 12.4629L8.20456 10.327L8.20455 10.327L8.20372 10.3265C8.10304 10.2672 8.02961 10.1709 7.9992 10.0581C7.96879 9.94529 7.98382 9.82507 8.04108 9.72324C8.09833 9.62141 8.19323 9.5461 8.3054 9.51347C8.41757 9.48085 8.53807 9.49351 8.641 9.54875L8.64101 9.54874L8.64188 9.54923L12.45 11.6919L14.755 10.4575L5.76454 5.33176ZM17.3504 13.1862C17.3047 13.2819 17.2264 13.3581 17.1296 13.4012L17.3504 13.1862ZM17.8839 8.78182L8.74853 3.81202L6.71627 4.84717L15.6836 9.96002L17.8839 8.78182ZM21.6552 6.7621L12.5036 1.899L9.71279 3.32075L18.825 8.27804L21.6552 6.7621Z" fill="#202020" stroke="black" stroke-width="0.1"/>
</svg>
