<svg width="40" height="40" viewBox="0 0 40 40" fill="none" xmlns="http://www.w3.org/2000/svg">
<g id="Frame 2147207258">
<g id="Group">
<path id="Vector" d="M19.0191 10.8627C19.276 10.8627 19.5271 10.7865 19.7407 10.6438C19.9543 10.5011 20.1208 10.2982 20.2191 10.0609C20.3174 9.82353 20.3431 9.56237 20.293 9.31041C20.2429 9.05845 20.1192 8.82701 19.9375 8.64537C19.7558 8.46372 19.5244 8.34002 19.2724 8.28991C19.0205 8.2398 18.7593 8.26553 18.522 8.36385C18.2846 8.46217 18.0818 8.62866 17.9391 8.84227C17.7964 9.05588 17.7202 9.30701 17.7202 9.5639C17.7206 9.90826 17.8576 10.2384 18.1011 10.4819C18.3446 10.7254 18.6747 10.8623 19.0191 10.8627ZM19.0191 9.10549C19.1098 9.10549 19.1985 9.13239 19.274 9.1828C19.3494 9.23321 19.4082 9.30486 19.4429 9.38869C19.4777 9.47252 19.4867 9.56476 19.469 9.65375C19.4513 9.74274 19.4076 9.82449 19.3435 9.88865C19.2793 9.95281 19.1976 9.9965 19.1086 10.0142C19.0196 10.0319 18.9274 10.0228 18.8435 9.9881C18.7597 9.95337 18.688 9.89457 18.6376 9.81913C18.5872 9.74368 18.5603 9.65499 18.5603 9.56425C18.5603 9.44255 18.6087 9.32584 18.6947 9.23975C18.7807 9.15366 18.8974 9.10525 19.0191 9.10514V9.10549ZM20.682 12.5256C20.682 12.7825 20.7582 13.0336 20.9009 13.2473C21.0436 13.4609 21.2464 13.6274 21.4838 13.7257C21.7211 13.824 21.9823 13.8497 22.2342 13.7996C22.4862 13.7495 22.7177 13.6258 22.8993 13.4441C23.081 13.2625 23.2047 13.031 23.2548 12.7791C23.3049 12.5271 23.2792 12.2659 23.1809 12.0286C23.0825 11.7913 22.916 11.5884 22.7024 11.4457C22.4888 11.303 22.2377 11.2268 21.9808 11.2268C21.6365 11.2272 21.3063 11.3642 21.0628 11.6077C20.8193 11.8511 20.6824 12.1813 20.682 12.5256ZM22.4396 12.5256C22.4396 12.6164 22.4127 12.7051 22.3623 12.7805C22.3119 12.856 22.2402 12.9148 22.1564 12.9495C22.0726 12.9842 21.9803 12.9933 21.8913 12.9756C21.8023 12.958 21.7206 12.9143 21.6564 12.8501C21.5923 12.786 21.5486 12.7042 21.5308 12.6152C21.5131 12.5262 21.5222 12.434 21.5569 12.3501C21.5917 12.2663 21.6505 12.1947 21.7259 12.1442C21.8014 12.0938 21.8901 12.0669 21.9808 12.0669C22.1024 12.067 22.219 12.1154 22.3051 12.2014C22.3911 12.2874 22.4395 12.404 22.4396 12.5256H22.4396ZM18.285 13.2597C18.324 13.2987 18.3704 13.3296 18.4213 13.3507C18.4723 13.3718 18.5269 13.3827 18.5821 13.3827C18.6373 13.3827 18.6919 13.3718 18.7429 13.3507C18.7938 13.3296 18.8401 13.2987 18.8791 13.2597L22.7148 9.42402C22.7544 9.38514 22.7858 9.33881 22.8073 9.28771C22.8289 9.23661 22.8401 9.18175 22.8403 9.1263C22.8405 9.07085 22.8298 9.01591 22.8086 8.96464C22.7875 8.91337 22.7565 8.86678 22.7173 8.82757C22.6781 8.78836 22.6315 8.75731 22.5802 8.73619C22.5289 8.71507 22.474 8.70432 22.4185 8.70455C22.3631 8.70477 22.3082 8.71597 22.2571 8.73751C22.206 8.75904 22.1597 8.79047 22.1208 8.83L18.2851 12.6656C18.2063 12.7444 18.1621 12.8512 18.1621 12.9626C18.162 13.074 18.2063 13.1809 18.285 13.2597Z" fill="black"/>
<path id="Vector_2" d="M20.4999 16.4782C21.5743 16.4782 22.6245 16.1596 23.5178 15.5627C24.4111 14.9659 25.1073 14.1175 25.5185 13.1249C25.9296 12.1323 26.0372 11.0401 25.8276 9.98642C25.618 8.93271 25.1006 7.96481 24.341 7.20513C23.5813 6.44545 22.6134 5.92809 21.5597 5.7185C20.5059 5.5089 19.4137 5.61647 18.4212 6.02761C17.4286 6.43875 16.5802 7.13499 15.9833 8.02828C15.3865 8.92158 15.0679 9.9718 15.0679 11.0462C15.0695 12.4863 15.6423 13.867 16.6607 14.8854C17.679 15.9037 19.0598 16.4766 20.4999 16.4782ZM20.4999 6.4543C21.4081 6.4543 22.2959 6.72361 23.0511 7.22818C23.8062 7.73275 24.3948 8.44992 24.7423 9.28899C25.0899 10.1281 25.1808 11.0513 25.0036 11.9421C24.8264 12.8328 24.3891 13.651 23.7469 14.2932C23.1047 14.9354 22.2865 15.3728 21.3957 15.5499C20.505 15.7271 19.5817 15.6362 18.7426 15.2886C17.9036 14.941 17.1864 14.3525 16.6818 13.5973C16.1773 12.8422 15.908 11.9544 15.908 11.0462C15.9094 9.82873 16.3936 8.66156 17.2545 7.80071C18.1153 6.93987 19.2825 6.45565 20.4999 6.4543ZM30.2254 11.0488C30.2254 11.1602 30.2697 11.2671 30.3485 11.3458C30.4272 11.4246 30.5341 11.4689 30.6455 11.4689H32.6457C32.7571 11.4689 32.864 11.4246 32.9427 11.3458C33.0215 11.2671 33.0658 11.1602 33.0658 11.0488C33.0658 10.9374 33.0215 10.8306 32.9427 10.7518C32.864 10.673 32.7571 10.6288 32.6457 10.6288H30.6455C30.5341 10.6288 30.4272 10.673 30.3485 10.7518C30.2697 10.8306 30.2254 10.9374 30.2254 11.0488ZM31.6446 6.814L29.6444 8.31218C29.558 8.37997 29.5016 8.47886 29.4873 8.5877C29.4729 8.69654 29.5018 8.80667 29.5676 8.89451C29.6335 8.98236 29.7311 9.04094 29.8396 9.05771C29.948 9.07449 30.0588 9.04812 30.1481 8.98427L32.1484 7.48608C32.2375 7.41924 32.2964 7.31973 32.3122 7.20945C32.3279 7.09916 32.2992 6.98713 32.2324 6.89801C32.1655 6.80889 32.066 6.74997 31.9557 6.73421C31.8455 6.71846 31.7334 6.74716 31.6443 6.814H31.6446ZM29.6444 13.7799L31.6446 15.2781C31.6887 15.3112 31.7389 15.3353 31.7924 15.349C31.8458 15.3627 31.9014 15.3657 31.956 15.3579C32.0106 15.3501 32.0632 15.3316 32.1106 15.3035C32.1581 15.2754 32.1996 15.2382 32.2327 15.1941C32.2658 15.15 32.2898 15.0997 32.3035 15.0463C32.3172 14.9929 32.3203 14.9373 32.3125 14.8827C32.3046 14.8281 32.2862 14.7755 32.2581 14.7281C32.23 14.6806 32.1928 14.6391 32.1487 14.606L30.1484 13.1078C30.0591 13.044 29.9483 13.0176 29.8398 13.0344C29.7313 13.0512 29.6337 13.1098 29.5679 13.1976C29.5021 13.2854 29.4732 13.3956 29.4876 13.5044C29.5019 13.6132 29.5583 13.7121 29.6447 13.7799H29.6444ZM7.93408 11.0488C7.93408 11.1602 7.97834 11.2671 8.05711 11.3458C8.13589 11.4246 8.24273 11.4689 8.35413 11.4689H10.3543C10.4658 11.4689 10.5726 11.4246 10.6514 11.3458C10.7301 11.2671 10.7744 11.1602 10.7744 11.0488C10.7744 10.9374 10.7301 10.8306 10.6514 10.7518C10.5726 10.673 10.4658 10.6288 10.3543 10.6288H8.35413C8.24273 10.6288 8.13589 10.673 8.05711 10.7518C7.97834 10.8306 7.93408 10.9374 7.93408 11.0488ZM10.8518 13.1076L8.85147 14.6057C8.76235 14.6726 8.70343 14.7721 8.68768 14.8824C8.67192 14.9927 8.70062 15.1047 8.76746 15.1938C8.83431 15.2829 8.93382 15.3419 9.0441 15.3576C9.15439 15.3734 9.26641 15.3447 9.35554 15.2778L11.3558 13.7796C11.4421 13.7119 11.4985 13.613 11.5128 13.5041C11.5272 13.3953 11.4983 13.2852 11.4325 13.1973C11.3667 13.1095 11.2691 13.0509 11.1606 13.0341C11.0521 13.0173 10.9413 13.0437 10.852 13.1076H10.8518ZM11.3555 8.31246L9.35526 6.814C9.31113 6.7809 9.26091 6.75682 9.20747 6.74313C9.15404 6.72944 9.09843 6.72641 9.04382 6.73421C8.98921 6.74201 8.93668 6.76049 8.88921 6.7886C8.84175 6.8167 8.80028 6.85388 8.76718 6.89801C8.73409 6.94214 8.71001 6.99236 8.69632 7.04579C8.68263 7.09923 8.67959 7.15484 8.6874 7.20945C8.70315 7.31973 8.76207 7.41924 8.85119 7.48608L10.8515 8.98427C10.9408 9.04812 11.0515 9.07449 11.16 9.05771C11.2685 9.04094 11.3661 8.98236 11.4319 8.89451C11.4978 8.80667 11.5266 8.69654 11.5123 8.5877C11.4979 8.47886 11.4415 8.37997 11.3552 8.31218L11.3555 8.31246Z" fill="black"/>
<path id="Vector_3" d="M31.7397 17.938C31.7184 17.8866 31.6846 17.8413 31.6415 17.8061C31.5984 17.7709 31.5473 17.7469 31.4927 17.7362L26.341 15.9706L26.7091 15.7845C27.0249 15.625 27.2874 15.377 27.4644 15.0707C27.6414 14.7644 27.7253 14.4131 27.7059 14.0599L27.6631 13.2822C27.652 13.0723 27.7082 12.8644 27.8235 12.6888L28.2462 12.0477C28.4425 11.7504 28.5471 11.402 28.5471 11.0457C28.5471 10.6895 28.4425 10.3411 28.2462 10.0438L27.8235 9.40277C27.7083 9.2271 27.6521 9.01921 27.6632 8.80938L27.706 8.03166C27.7254 7.67841 27.6415 7.32715 27.4645 7.02084C27.2875 6.71453 27.025 6.46645 26.7093 6.30692L26.0209 5.95919C25.8338 5.8652 25.682 5.71341 25.5879 5.52633L25.2401 4.83793C25.0806 4.52217 24.8326 4.25974 24.5263 4.08272C24.22 3.90571 23.8687 3.82179 23.5155 3.84122L22.7377 3.884C22.5279 3.89508 22.32 3.83889 22.1444 3.72361L21.5034 3.30097C21.2061 3.10465 20.8577 3 20.5014 3C20.1451 3 19.7967 3.10465 19.4994 3.30097L18.8584 3.72361C18.6827 3.83872 18.4749 3.89489 18.2651 3.884L17.4873 3.84122C17.1341 3.82163 16.7828 3.90546 16.4765 4.08245C16.1701 4.25944 15.922 4.52191 15.7626 4.83772L15.4148 5.52612C15.3208 5.71322 15.1689 5.86501 14.9818 5.95898L14.2935 6.30671C13.9777 6.46623 13.7153 6.71431 13.5383 7.02062C13.3612 7.32693 13.2773 7.67819 13.2968 8.03145L13.3395 8.80917C13.3507 9.019 13.2945 9.22689 13.1792 9.40256L12.7565 10.0436C12.5602 10.3409 12.4556 10.6893 12.4556 11.0456C12.4556 11.4018 12.5602 11.7502 12.7565 12.0475L13.1791 12.6886C13.2944 12.8642 13.3506 13.0721 13.3395 13.2819L13.2967 14.0597C13.2772 14.4129 13.3612 14.7641 13.5382 15.0704C13.7152 15.3767 13.9776 15.6248 14.2934 15.7843L14.6913 15.9853L9.50999 17.7354C9.45518 17.7461 9.40386 17.7702 9.3606 17.8055C9.31734 17.8408 9.28347 17.8862 9.26202 17.9378L7.04569 22.1452C6.99533 22.2446 6.9862 22.3598 7.02028 22.4658C7.05436 22.5719 7.1289 22.6602 7.22771 22.7116L9.43998 23.8838V32.0032C9.43794 32.0812 9.4582 32.1582 9.49837 32.2252C9.53855 32.2921 9.59697 32.3463 9.66681 32.3812L20.3237 37.5364C20.3798 37.564 20.4414 37.5784 20.5039 37.5784C20.5668 37.5784 20.6289 37.564 20.6855 37.5364L31.3366 32.3812C31.4063 32.3462 31.4646 32.2921 31.5047 32.2251C31.5447 32.1581 31.5649 32.0812 31.5627 32.0032V23.8838L33.7776 22.7116C33.8755 22.6594 33.9488 22.5705 33.9815 22.4644C34.0141 22.3583 34.0034 22.2436 33.9517 22.1453L31.7397 17.938ZM14.6723 15.0345C14.5023 14.9486 14.3609 14.815 14.2656 14.6501C14.1703 14.4851 14.1251 14.296 14.1356 14.1058L14.1784 13.328C14.199 12.9384 14.0946 12.5523 13.8806 12.2261L13.458 11.5851C13.3523 11.425 13.2959 11.2374 13.2959 11.0456C13.2959 10.8537 13.3523 10.6661 13.458 10.506L13.8806 9.86504C14.0947 9.53879 14.1991 9.15272 14.1785 8.76303L14.1357 7.98531C14.1252 7.79509 14.1704 7.60594 14.2657 7.441C14.361 7.27605 14.5024 7.14247 14.6724 7.05658L15.3607 6.70884C15.7082 6.53429 15.9901 6.25238 16.1647 5.90493L16.5125 5.21647C16.5984 5.04649 16.732 4.90521 16.8969 4.8099C17.0618 4.7146 17.2509 4.66938 17.4411 4.67978L18.2188 4.72263C18.6086 4.74341 18.9947 4.63906 19.3209 4.42481L19.9619 4.0021C20.122 3.89641 20.3096 3.84007 20.5014 3.84007C20.6932 3.84007 20.8808 3.89641 21.0409 4.0021L21.6819 4.42481C22.008 4.63893 22.394 4.74328 22.7836 4.72263L23.5613 4.67978C23.7516 4.66934 23.9407 4.71453 24.1057 4.80984C24.2707 4.90515 24.4043 5.04645 24.4903 5.21647L24.838 5.90479C25.0126 6.25226 25.2945 6.53419 25.642 6.70877L26.3304 7.05651C26.5004 7.14241 26.6417 7.276 26.7371 7.44094C26.8324 7.60588 26.8776 7.79503 26.8671 7.98524L26.8242 8.76297C26.8037 9.15265 26.908 9.53872 27.1221 9.86497L27.5447 10.5059C27.6504 10.666 27.7067 10.8536 27.7067 11.0455C27.7067 11.2373 27.6504 11.4249 27.5447 11.585L27.122 12.226C26.908 12.5523 26.8036 12.9383 26.8242 13.328L26.867 14.1057C26.8775 14.2959 26.8323 14.4851 26.7369 14.65C26.6416 14.8149 26.5003 14.9485 26.3302 15.0344L25.642 15.3822C25.2945 15.5567 25.0125 15.8387 24.8379 16.1861L24.4902 16.8746C24.4041 17.0444 24.2704 17.1855 24.1056 17.2808C23.9407 17.3761 23.7517 17.4214 23.5616 17.4113L22.7838 17.3684C22.3941 17.3478 22.008 17.4522 21.6817 17.6662L21.0407 18.0889C20.8807 18.1946 20.6931 18.251 20.5013 18.251C20.3094 18.251 20.1218 18.1946 19.9618 18.0889L19.3208 17.6662C19.0224 17.4706 18.6735 17.3662 18.3168 17.3658C18.2842 17.3658 18.2514 17.3666 18.2188 17.3684L17.4411 17.4113C17.2508 17.4218 17.0617 17.3766 16.8967 17.2813C16.7318 17.186 16.5982 17.0446 16.5124 16.8745L16.1647 16.1861C15.9901 15.8387 15.7081 15.5568 15.3607 15.3822L14.6723 15.0345ZM20.0813 36.4887L10.2801 31.7397V24.3305L18.0491 28.4672C18.108 28.4994 18.174 28.5163 18.2411 28.5162C18.2836 28.5162 18.3259 28.5095 18.3664 28.4963C18.4196 28.4792 18.4688 28.4516 18.5111 28.4152C18.5535 28.3787 18.5881 28.3341 18.6129 28.284L20.0813 25.3448V36.4887ZM20.4999 23.0961L14.3152 20.0076C14.1261 19.9133 13.897 19.9394 13.7792 20.1494C13.7459 20.199 13.7236 20.2551 13.7137 20.3139C13.7039 20.3728 13.7066 20.433 13.7219 20.4907C13.7371 20.5484 13.7644 20.6022 13.8021 20.6485C13.8397 20.6948 13.8868 20.7325 13.9402 20.7592L19.9373 23.7538L18.0525 27.5235L7.97827 22.1662L9.80402 18.6931L11.4142 19.4973C11.5139 19.5471 11.6293 19.5552 11.7349 19.5199C11.8406 19.4846 11.9279 19.4088 11.9777 19.3092C12.0275 19.2095 12.0356 19.0941 12.0003 18.9885C11.965 18.8828 11.8892 18.7955 11.7895 18.7457L10.7146 18.2089L15.4401 16.6155L15.7625 17.2535C15.9219 17.5694 16.1699 17.8319 16.4763 18.0089C16.7826 18.186 17.1339 18.2698 17.4872 18.2502L18.265 18.2074C18.4748 18.1965 18.6826 18.2526 18.8583 18.3678L19.4993 18.7904C19.7966 18.9867 20.145 19.0914 20.5013 19.0914C20.8575 19.0914 21.2059 18.9867 21.5032 18.7904L22.1442 18.3678C22.3199 18.2526 22.5277 18.1964 22.7375 18.2074L23.5153 18.2502C23.8686 18.2698 24.2199 18.1859 24.5262 18.0089C24.8326 17.8319 25.0806 17.5693 25.24 17.2535L25.5735 16.5934L30.2907 18.2061L20.4999 23.0961ZM30.7226 31.7397L20.9214 36.4887V25.3448L22.3911 28.2843C22.426 28.3541 22.4796 28.4127 22.5459 28.4538C22.6123 28.4948 22.6887 28.5165 22.7667 28.5165C22.8322 28.5165 22.8966 28.4997 22.9536 28.4675L30.7226 24.3305V31.7397ZM22.9499 27.5233L21.065 23.7535L31.1986 18.6931L33.0243 22.1662L22.9499 27.5233Z" fill="black"/>
<path id="Vector_4" d="M11.3297 25.8914C11.2183 25.8914 11.1115 25.9357 11.0327 26.0145C10.9539 26.0932 10.9097 26.2001 10.9097 26.3115V26.6876C10.9097 26.799 10.9539 26.9058 11.0327 26.9846C11.1115 27.0634 11.2183 27.1076 11.3297 27.1076C11.4411 27.1076 11.548 27.0634 11.6267 26.9846C11.7055 26.9058 11.7498 26.799 11.7498 26.6876V26.3115C11.7498 26.2001 11.7055 26.0932 11.6267 26.0145C11.548 25.9357 11.4411 25.8914 11.3297 25.8914ZM11.3297 27.615C11.2183 27.615 11.1115 27.6592 11.0327 27.738C10.9539 27.8168 10.9097 27.9236 10.9097 28.035V30.8737C10.9097 30.9851 10.9539 31.092 11.0327 31.1708C11.1115 31.2495 11.2183 31.2938 11.3297 31.2938C11.4411 31.2938 11.548 31.2495 11.6267 31.1708C11.7055 31.092 11.7498 30.9851 11.7498 30.8737V28.035C11.7498 27.9236 11.7055 27.8168 11.6267 27.738C11.548 27.6592 11.4411 27.615 11.3297 27.615Z" fill="black"/>
</g>
</g>
</svg>
