<svg width="40" height="40" viewBox="0 0 40 40" fill="none" xmlns="http://www.w3.org/2000/svg">
<path d="M22.0332 10.8545H8.86612M6.20608 10.8545H3.18519C1.97836 10.8545 1 11.8327 1 13.0394V31.808C1 33.0146 1.97836 33.9929 3.18519 33.9929H33.69C34.8968 33.9929 35.8752 33.0146 35.8752 31.808V19.9394" stroke="#9C9C9C" stroke-width="1.13994" stroke-miterlimit="10" stroke-linecap="round" stroke-linejoin="round"/>
<path d="M33.8472 7.7955C32.5886 7.7955 31.4701 7.16546 30.7914 6.20517C30.7473 6.14184 30.6885 6.0901 30.6201 6.05438C30.5517 6.01866 30.4757 6 30.3985 6C30.3213 6 30.2453 6.01866 30.1769 6.05438C30.1085 6.0901 30.0497 6.14184 30.0056 6.20517C29.3269 7.16539 28.2084 7.7955 26.9498 7.7955H23.3943C22.8508 7.7955 22.3809 8.17956 22.278 8.71317C22.1086 9.59176 22.0233 10.4845 22.0234 11.3793C22.0234 16.999 25.3131 21.8498 30.0717 24.1134C30.1738 24.1619 30.2855 24.1871 30.3986 24.1871C30.5117 24.1871 30.6234 24.1619 30.7255 24.1134C35.484 21.8498 38.7736 16.9989 38.7736 11.3792C38.7736 10.4673 38.6854 9.57635 38.519 8.71309C38.4161 8.17948 37.9463 7.79542 37.4027 7.79542L33.8472 7.7955Z" stroke="#9C9C9C" stroke-width="1.13994" stroke-miterlimit="10" stroke-linecap="round" stroke-linejoin="round"/>
<path d="M28.2847 18.7246C28.9413 19.0521 29.6652 19.2223 30.399 19.2215C33.0205 19.2215 35.1457 17.0966 35.1457 14.4755C35.1457 11.8543 33.0205 9.72949 30.399 9.72949C27.7775 9.72949 25.6523 11.8543 25.6523 14.4755C25.6523 15.3691 25.8997 16.2048 26.3292 16.9185" stroke="#9C9C9C" stroke-width="1.13994" stroke-miterlimit="10" stroke-linecap="round" stroke-linejoin="round"/>
<path d="M28.0808 14.2433L29.911 16.0733L32.9681 13.0166M20.4948 30.9465H32.508C32.6087 30.9465 32.7054 30.9064 32.7767 30.8352C32.8479 30.7639 32.888 30.6673 32.888 30.5665V28.2847C32.888 28.184 32.8479 28.0873 32.7767 28.0161C32.7054 27.9448 32.6087 27.9048 32.508 27.9048H16.5561C16.4554 27.9048 16.3587 27.9448 16.2874 28.0161C16.2162 28.0873 16.1761 28.184 16.1761 28.2847V30.5665C16.1761 30.6673 16.2162 30.7639 16.2874 30.8352C16.3587 30.9064 16.4554 30.9465 16.5561 30.9465H17.8348M11.659 26.0556H4.36829C4.2675 26.0556 4.17085 26.0155 4.09958 25.9443C4.02832 25.873 3.98828 25.7764 3.98828 25.6756V22.3613C3.98828 22.2605 4.02832 22.1639 4.09958 22.0926C4.17085 22.0213 4.2675 21.9813 4.36829 21.9813H11.659C11.7598 21.9813 11.8564 22.0213 11.9277 22.0926C11.999 22.1639 12.039 22.2605 12.039 22.3613V25.6756C12.039 25.7764 11.999 25.873 11.9277 25.9443C11.8564 26.0155 11.7598 26.0556 11.659 26.0556Z" stroke="#9C9C9C" stroke-width="1.13994" stroke-miterlimit="10" stroke-linecap="round" stroke-linejoin="round"/>
<path d="M3.98776 30.946H12.9093M4.12373 28.6674H4.49476M6.39388 28.6674H6.76492M8.66404 28.6674H9.03507M22.4594 14.8732H1V19.1457H24.3547M32.5074 27.9044H27.6586V30.946H32.5074C32.6081 30.946 32.7048 30.906 32.7761 30.8348C32.8473 30.7635 32.8874 30.6669 32.8874 30.5661V28.2843C32.8874 28.1835 32.8473 28.0869 32.7761 28.0156C32.7048 27.9444 32.6081 27.9044 32.5074 27.9044Z" stroke="#9C9C9C" stroke-width="1.13994" stroke-miterlimit="10" stroke-linecap="round" stroke-linejoin="round"/>
</svg>
