<svg width="24" height="27" viewBox="0 0 24 27" fill="none" xmlns="http://www.w3.org/2000/svg">
<path fill-rule="evenodd" clip-rule="evenodd" d="M7.92994 16.6373C8.00574 16.7387 8.03829 16.8659 8.02049 16.9913C8.00268 17.1166 7.93596 17.2298 7.83493 17.3061C7.7339 17.3823 7.60677 17.4155 7.48135 17.3983C7.35594 17.381 7.24245 17.3148 7.16571 17.2142C6.17437 15.8978 5.73402 14.2989 5.84481 12.7321C6.07904 9.42022 8.7141 6.78516 12.026 6.55092C13.1321 6.47272 14.2542 6.66922 15.2816 7.14033C15.2433 7.02215 15.2527 6.89371 15.3076 6.7823C15.3626 6.67089 15.4588 6.58529 15.5758 6.54367C15.6928 6.50206 15.8215 6.5077 15.9344 6.55942C16.0474 6.61113 16.1357 6.70483 16.1807 6.82062L16.6514 8.04665C16.797 8.38485 16.5724 8.70502 16.259 8.73094L16.259 8.73147L14.911 8.84324C14.3708 8.88787 14.1883 8.13463 14.6846 7.92434C11.0982 6.44264 7.07568 8.90318 6.80015 12.7996C6.70512 14.1419 7.08182 15.5111 7.92994 16.6373ZM9.71825 19.2717C10.7457 19.7428 11.8677 19.9393 12.9738 19.8611C16.2858 19.6269 18.9209 16.9918 19.1551 13.6799C19.2659 12.1132 18.8255 10.5142 17.8342 9.19789C17.7574 9.09721 17.644 9.03102 17.5185 9.01381C17.3931 8.99659 17.266 9.02974 17.165 9.10601C17.0639 9.18228 16.9972 9.29546 16.9794 9.42079C16.9616 9.54612 16.9942 9.6734 17.07 9.77479C17.9181 10.901 18.2947 12.2701 18.1998 13.6125C17.9243 17.509 13.9018 19.9695 10.3154 18.4878C10.8117 18.2774 10.6291 17.5243 10.089 17.5689L8.74093 17.6807L8.741 17.6812C8.42743 17.7071 8.20305 18.0274 8.34854 18.3654L8.81921 19.5916C8.86301 19.709 8.95122 19.8044 9.06479 19.8573C9.17836 19.9102 9.30818 19.9163 9.42622 19.8743C9.54426 19.8323 9.64104 19.7456 9.69568 19.6328C9.75032 19.5201 9.75843 19.3904 9.71825 19.2717ZM12.3033 25.5553C12.3651 25.5833 12.4321 25.5977 12.4999 25.5977C12.5678 25.5977 12.6348 25.5833 12.6966 25.5553C17.2727 23.4782 19.7914 20.6025 21.199 17.2667C22.5908 13.9683 22.8775 10.2509 22.9991 6.41884C23.0057 6.31368 22.9773 6.20928 22.9185 6.12186C22.8596 6.03445 22.7736 5.96892 22.6737 5.93545L22.2349 5.78904L22.2347 5.78965L22.233 5.78904C18.3402 4.49095 15.372 3.5012 12.8258 1.12818C12.7373 1.0458 12.6208 1 12.4999 1C12.3789 1 12.2625 1.0458 12.1739 1.12818C9.4922 3.6254 6.29455 4.61 2.32616 5.93545C2.22873 5.96811 2.14442 6.0313 2.08571 6.11563C2.02701 6.19997 1.99703 6.30098 2.00023 6.40369C2.12148 10.2411 2.40716 13.9639 3.80082 17.2667C5.21561 20.6195 7.72079 23.464 12.3033 25.5553ZM4.68122 16.8958C5.97939 19.9724 8.29997 22.6371 12.4999 24.5921C16.6999 22.6371 19.0205 19.9724 20.3188 16.8958C21.6088 13.8386 21.9076 10.3453 22.0326 6.72931L21.9316 6.69559L21.9317 6.69506C18.0847 5.41227 15.1146 4.42138 12.4999 2.12338C9.85844 4.44495 6.83531 5.43902 2.96732 6.72931C3.09228 10.3453 3.39116 13.8386 4.68122 16.8958ZM10.0962 13.5743L11.5171 14.9952C11.717 15.1951 12.0369 15.1874 12.239 14.9448L14.8133 12.1365C14.8987 12.0431 14.9436 11.9196 14.9379 11.7932C14.9323 11.6667 14.8767 11.5477 14.7833 11.4622C14.6899 11.3768 14.5664 11.3319 14.44 11.3376C14.3135 11.3432 14.1945 11.3988 14.109 11.4922L11.8426 13.9646L10.7742 12.8962C10.6838 12.8086 10.5626 12.7601 10.4368 12.7611C10.3109 12.7622 10.1905 12.8126 10.1015 12.9016C10.0125 12.9906 9.96211 13.111 9.9611 13.2368C9.9601 13.3627 10.0086 13.4839 10.0962 13.5743Z" fill="#202020"/>
</svg>
