<svg width="40" height="40" viewBox="0 0 40 40" fill="none" xmlns="http://www.w3.org/2000/svg">
<g id="Frame 2147207275">
<g id="Group">
<path id="Vector" fill-rule="evenodd" clip-rule="evenodd" d="M14.6242 24.1051C14.7217 24.2354 14.7635 24.3991 14.7406 24.5602C14.7177 24.7213 14.632 24.8669 14.5021 24.9649C14.3722 25.063 14.2087 25.1056 14.0475 25.0835C13.8862 25.0613 13.7403 24.9762 13.6416 24.8468C12.367 23.1543 11.8009 21.0986 11.9433 19.0842C12.2445 14.826 15.6324 11.4381 19.8906 11.1369C21.3127 11.0364 22.7553 11.289 24.0763 11.8947C24.0271 11.7428 24.0392 11.5776 24.1098 11.4344C24.1804 11.2911 24.3041 11.1811 24.4546 11.1276C24.6051 11.0741 24.7705 11.0813 24.9157 11.1478C25.0609 11.2143 25.1745 11.3348 25.2323 11.4837L25.8375 13.06C26.0247 13.4948 25.7359 13.9065 25.333 13.9398L25.3331 13.9405L23.5999 14.0842C22.9053 14.1416 22.6707 13.1731 23.3087 12.9027C18.6977 10.9977 13.5259 14.1612 13.1716 19.1709C13.0494 20.8968 13.5338 22.6572 14.6242 24.1051ZM16.9235 27.4922C18.2444 28.0979 19.6871 28.3506 21.1092 28.25C25.3674 27.9489 28.7554 24.5609 29.0565 20.3027C29.199 18.2884 28.6328 16.2326 27.3582 14.5401C27.2596 14.4107 27.1137 14.3256 26.9524 14.3035C26.7912 14.2813 26.6277 14.324 26.4978 14.422C26.3679 14.5201 26.2821 14.6656 26.2592 14.8267C26.2363 14.9879 26.2782 15.1515 26.3757 15.2819C27.4661 16.7299 27.9503 18.4902 27.8283 20.2161C27.4741 25.2258 22.3023 28.3894 17.6912 26.4843C18.3293 26.2138 18.0946 25.2455 17.4001 25.3029L15.6669 25.4466L15.667 25.4473C15.2638 25.4806 14.9753 25.8923 15.1624 26.327L15.7676 27.9035C15.8239 28.0544 15.9373 28.1771 16.0833 28.2451C16.2293 28.3131 16.3962 28.321 16.548 28.267C16.6998 28.213 16.8242 28.1015 16.8944 27.9565C16.9647 27.8116 16.9751 27.6448 16.9235 27.4922ZM20.2471 35.5711C20.3266 35.607 20.4127 35.6256 20.4999 35.6256C20.5871 35.6256 20.6733 35.607 20.7528 35.5711C26.6363 32.9006 29.8747 29.2032 31.6844 24.9143C33.4739 20.6735 33.8425 15.894 33.9988 10.9671C34.0073 10.8319 33.9708 10.6976 33.8952 10.5853C33.8195 10.4729 33.7089 10.3886 33.5804 10.3456L33.0163 10.1573L33.016 10.1581L33.0139 10.1573C28.0089 8.48836 24.1926 7.21582 20.9189 4.1648C20.805 4.05888 20.6553 4 20.4998 4C20.3443 4 20.1946 4.05888 20.0808 4.1648C16.6328 7.37551 12.5216 8.64142 7.41935 10.3456C7.29408 10.3876 7.18568 10.4688 7.1102 10.5772C7.03473 10.6857 6.99619 10.8155 7.0003 10.9476C7.15619 15.8815 7.5235 20.6679 9.31534 24.9143C11.1344 29.225 14.3553 32.8823 20.2471 35.5711ZM10.4473 24.4375C12.1164 28.3931 15.1 31.8191 20.4999 34.3327C25.8999 31.8191 28.8835 28.3931 30.5527 24.4375C32.2113 20.5068 32.5955 16.0154 32.7563 11.3663L32.6263 11.3229L32.6265 11.3222C27.6803 9.67292 23.8617 8.39892 20.4999 5.44435C17.1037 8.42922 13.2168 9.70731 8.2437 11.3663C8.40436 16.0154 8.78863 20.5068 10.4473 24.4375ZM17.4094 20.1669L19.2363 21.9938C19.4933 22.2509 19.9045 22.2409 20.1644 21.9291L23.4742 18.3184C23.584 18.1983 23.6417 18.0395 23.6345 17.8769C23.6273 17.7144 23.5558 17.5613 23.4357 17.4515C23.3156 17.3416 23.1568 17.2839 22.9943 17.2911C22.8317 17.2984 22.6786 17.3699 22.5688 17.4899L19.6548 20.6688L18.2812 19.2951C18.1649 19.1826 18.0091 19.1202 17.8473 19.1215C17.6855 19.1228 17.5307 19.1876 17.4163 19.302C17.3018 19.4165 17.237 19.5713 17.2357 19.7331C17.2344 19.8949 17.2968 20.0507 17.4094 20.1669Z" fill="#737373"/>
</g>
</g>
</svg>
