<svg width="24" height="24" viewBox="0 0 24 24" fill="none" xmlns="http://www.w3.org/2000/svg">
<g clip-path="url(#clip0_355_58)">
<path d="M5.1416 8.79125L5.14031 8.78997L5.1421 8.76697C5.14617 8.71469 5.16331 8.66426 5.19195 8.62033C5.2206 8.5764 5.25983 8.54038 5.30603 8.51557L5.30602 8.51556L5.30699 8.51507L11.8645 5.17463L11.8646 5.17457L11.8873 5.21913M5.1416 8.79125L18.6934 16.1861M5.1416 8.79125L5.14158 8.79207L5.14102 8.85283C5.14068 8.90552 5.14039 8.98225 5.14014 9.07957C5.13964 9.27422 5.13932 9.55141 5.13913 9.88363C5.13875 10.5481 5.1389 11.4327 5.13919 12.3173L5.14011 14.7515L5.14019 15.5559L5.14001 15.7827L5.13985 15.8432L5.13975 15.8589L5.13972 15.8611L5.13912 15.8653H5.13964C5.13968 15.9212 5.15497 15.976 5.18386 16.0238C5.21274 16.0716 5.25411 16.1106 5.30353 16.1367C5.30354 16.1367 5.30355 16.1367 5.30356 16.1367L11.8612 19.5954L11.8621 19.5959L11.8621 19.5958C11.906 19.6179 11.9544 19.6294 12.0035 19.6295C12.0526 19.6297 12.1011 19.6185 12.1451 19.5968L12.1461 19.5963L12.1461 19.5963L15.7281 17.7307C15.8003 17.6931 15.8546 17.6284 15.8791 17.5507C15.9036 17.473 15.8962 17.3889 15.8586 17.3166C15.821 17.2444 15.7562 17.1901 15.6785 17.1657C15.6009 17.1412 15.5167 17.1486 15.4445 17.1862L12.3089 18.8194L12.2716 12.6384L13.7423 11.8509L13.7121 13.3489L13.7121 13.3494C13.7117 13.4009 13.724 13.4517 13.7482 13.4971C13.7723 13.5426 13.8074 13.5812 13.8503 13.6097C13.8932 13.6381 13.9425 13.6553 13.9938 13.6599C14.0451 13.6644 14.0966 13.656 14.1438 13.6355L14.1443 13.6353L15.0084 13.2499L5.1416 8.79125ZM11.8873 5.21913C11.9241 5.20029 11.9648 5.19061 12.0061 5.19093C12.0474 5.19124 12.0881 5.20153 12.1245 5.22092L18.6721 8.70018C18.7123 8.72326 18.7459 8.75621 18.7698 8.79592C18.7937 8.83563 18.807 8.88077 18.8086 8.92708V15.9139C18.8086 15.9609 18.7957 16.007 18.7713 16.0472C18.747 16.0873 18.712 16.1201 18.6703 16.1418L16.7329 17.1516C16.6724 17.1831 16.6019 17.1893 16.5369 17.1688C16.4719 17.1483 16.4177 17.1029 16.3862 17.0424C16.3547 16.982 16.3486 16.9115 16.369 16.8465C16.3895 16.7815 16.435 16.7273 16.4954 16.6958M11.8873 5.21913L5.32968 8.55962L11.8873 5.21913ZM16.4954 16.6958L16.4723 16.6515C16.4001 16.6891 16.3458 16.7538 16.3213 16.8315C16.2969 16.9091 16.3043 16.9933 16.3419 17.0655C16.3795 17.1377 16.4442 17.1921 16.5219 17.2165C16.5996 17.241 16.6837 17.2336 16.756 17.196L16.756 17.196L18.6934 16.1861M16.4954 16.6958L16.4723 16.6514L18.2447 15.7276M16.4954 16.6958L18.2947 15.7579M18.6934 16.1861L18.6704 16.1418L18.6935 16.1861L18.6934 16.1861ZM18.2947 15.7579H18.2447V15.7276M18.2947 15.7579L18.2716 15.7135L18.2447 15.7276M18.2947 15.7579V9.41292L18.2447 9.4397M18.2447 15.7276V9.4397M18.2447 9.4397V9.38298M18.2447 9.4397L16.4072 10.4238M18.2447 9.38298L15.1604 13.1019M18.2447 9.38298L16.3572 10.3938M18.2447 9.38298L14.9881 13.2042C15.0439 13.1794 15.089 13.1355 15.1153 13.0803M16.4072 10.4238L16.4072 12.4557L16.4072 12.4561C16.4068 12.4996 16.3973 12.5425 16.3792 12.582C16.361 12.6216 16.3348 12.6568 16.3021 12.6855C16.2694 12.7142 16.2311 12.7357 16.1895 12.7485C16.148 12.7613 16.1042 12.7652 16.061 12.76L16.0606 12.7599L15.3678 12.6695M16.4072 10.4238V10.3938H16.3572M16.4072 10.4238L16.3808 10.4379L16.3572 10.3938M15.3678 12.6695L15.1604 13.1019M15.3678 12.6695L15.3834 12.6369L15.3383 12.6152M15.3678 12.6695L15.3319 12.6648L15.3383 12.6152M15.1604 13.1019L15.1153 13.0803M15.1604 13.1019C15.1604 13.1019 15.1604 13.1019 15.1604 13.1019L15.1604 13.102L15.1153 13.0803M15.1153 13.0803L15.3383 12.6152M15.3383 12.6152L16.0671 12.7103C16.1032 12.7147 16.1399 12.7115 16.1748 12.7007C16.2096 12.69 16.2417 12.672 16.2691 12.6479C16.2965 12.6239 16.3185 12.5943 16.3337 12.5612C16.3489 12.5281 16.3569 12.4921 16.3572 12.4557V10.3938M12.148 5.17677C12.148 5.17677 12.148 5.17678 12.148 5.17678L12.148 5.17677ZM15.2269 12.0314L15.2269 12.0314L15.7933 12.1058V10.7523L14.363 11.5182L14.3356 12.8775L14.6554 12.7348L14.9101 12.2033C14.9101 12.2033 14.9101 12.2033 14.9101 12.2033C14.938 12.1449 14.9837 12.0969 15.0406 12.066C15.0975 12.0351 15.1627 12.023 15.2269 12.0314ZM7.62995 8.02027L6.09591 8.80182L8.47731 10.1421L8.47733 10.1421C8.51246 10.1619 8.54335 10.1884 8.56823 10.2202C8.59311 10.2519 8.6115 10.2882 8.62234 10.327L8.57419 10.3405L8.62235 10.327C8.64425 10.4055 8.6341 10.4894 8.59413 10.5603C8.55416 10.6313 8.48764 10.6834 8.40921 10.7053C8.37037 10.7162 8.32978 10.7193 8.28975 10.7144C8.24973 10.7096 8.21106 10.6969 8.17593 10.6771C8.17593 10.6771 8.17592 10.6771 8.17591 10.6771L5.75305 9.3135V15.6799L11.6947 18.8135L11.6574 12.6356L9.2043 11.2553L9.20429 11.2553L9.20346 11.2548C9.13419 11.2141 9.08368 11.1478 9.06276 11.0702C9.04184 10.9926 9.05218 10.9099 9.09157 10.8398C9.13095 10.7698 9.19624 10.718 9.27341 10.6955C9.35057 10.6731 9.43347 10.6818 9.50428 10.7198L9.50428 10.7198L9.50515 10.7203L11.9666 12.1052L13.4249 11.3242L7.62995 8.02027ZM15.4535 10.2377L9.56544 7.03453L8.28468 7.68689L14.0638 10.9819L15.4535 10.2377ZM17.8991 8.92803L12.0009 5.79378L10.2288 6.69657L16.1009 9.89117L17.8991 8.92803Z" fill="#202020" stroke="black" stroke-width="0.1"/>
<mask id="path-2-outside-1_355_58" maskUnits="userSpaceOnUse" x="0" y="0" width="24" height="24" fill="black">
<rect fill="white" width="24" height="24"/>
<path d="M3.44847 17.6767C2.15314 15.7452 1.55845 13.4002 1.77513 11.071C1.8195 10.5591 1.90896 10.0224 2.04021 9.47976C2.16084 9.00533 2.31189 8.5485 2.49081 8.11954C3.00382 6.85332 3.7687 5.70452 4.73904 4.74279C5.56989 3.9045 6.54112 3.21817 7.60872 2.71492C8.09583 2.48546 8.60031 2.29482 9.11744 2.14479C9.57513 2.00982 10.0423 1.90944 10.5151 1.84452C10.5314 1.8424 10.5476 1.83897 10.5635 1.83425C13.2179 1.46248 15.8636 2.11876 18.0132 3.68431C18.2236 3.83683 18.4282 3.99742 18.6262 4.16497L17.8522 4.2064C17.7562 4.21061 17.6656 4.25237 17.6001 4.3227C17.5345 4.39303 17.4992 4.4863 17.5018 4.58241C17.5043 4.67852 17.5445 4.76978 17.6137 4.83654C17.6829 4.90329 17.7755 4.9402 17.8717 4.93931L17.8918 4.93895L19.5303 4.85132C19.5655 4.84949 19.5985 4.83665 19.6315 4.82456C19.6403 4.82162 19.6499 4.82126 19.6583 4.81759C19.6829 4.80622 19.703 4.78899 19.7247 4.77249C19.7426 4.75929 19.7617 4.74866 19.7767 4.7329C19.7789 4.7307 19.7822 4.7296 19.7844 4.72703C19.7958 4.71456 19.8002 4.69806 19.8093 4.68413C19.8258 4.6603 19.8423 4.6372 19.853 4.60971C19.8596 4.59211 19.8599 4.57414 19.864 4.55581C19.8695 4.53051 19.8794 4.50705 19.8794 4.48028C19.8794 4.47552 19.8768 4.47112 19.8764 4.46598C19.8764 4.46342 19.8775 4.46122 19.8775 4.45865L19.7841 2.82564C19.7775 2.72889 19.7333 2.63856 19.6609 2.57405C19.5885 2.50954 19.4937 2.476 19.3969 2.48064C19.3488 2.4834 19.3018 2.4956 19.2584 2.51656C19.2151 2.53752 19.1763 2.56682 19.1443 2.60277C19.1123 2.63873 19.0877 2.68065 19.0719 2.72613C19.0561 2.7716 19.0494 2.81975 19.0522 2.86781L19.094 3.60108C18.8841 3.42327 18.6676 3.25328 18.4451 3.09146C16.1301 1.40529 13.2803 0.703905 10.4186 1.11454C10.404 1.11668 10.3896 1.11974 10.3754 1.12371C9.88103 1.19365 9.39247 1.29964 8.91359 1.44085C8.35994 1.60165 7.8198 1.80577 7.29818 2.0513C6.15348 2.59032 5.11211 3.3258 4.22135 4.22437C3.18255 5.25465 2.36358 6.48497 1.814 7.84089C1.61743 8.31598 1.4558 8.80479 1.3304 9.30341C1.19306 9.86276 1.09819 10.4317 1.04662 11.0053C0.814908 13.5 1.45213 16.014 2.84169 18.0851C2.86836 18.1253 2.90271 18.1597 2.94276 18.1865C2.98281 18.2133 3.02776 18.2319 3.07503 18.2412C3.1223 18.2506 3.17096 18.2505 3.21818 18.2409C3.26541 18.2314 3.31028 18.2126 3.35021 18.1856C3.39021 18.1588 3.42453 18.1243 3.45121 18.0842C3.47788 18.0441 3.4964 17.9991 3.50569 17.9519C3.51499 17.9046 3.51488 17.856 3.50538 17.8088C3.49587 17.7616 3.47716 17.7167 3.45031 17.6767H3.44847ZM20.6413 5.81448C20.6013 5.84131 20.5669 5.87576 20.5403 5.91586C20.5136 5.95597 20.4951 6.00093 20.4858 6.04819C20.4765 6.09545 20.4766 6.14407 20.4861 6.19129C20.4956 6.23851 20.5143 6.28339 20.5412 6.32337C21.8365 8.25483 22.4312 10.5998 22.2145 12.9291C22.1661 13.4654 22.0774 13.9973 21.9494 14.5203C21.8325 14.9841 21.6819 15.4387 21.4988 15.8805C20.9858 17.1468 20.2209 18.2956 19.2506 19.2573C18.4197 20.0956 17.4485 20.7819 16.3809 21.2852C15.8938 21.5146 15.3893 21.7052 14.8722 21.8553C14.4145 21.9903 13.9473 22.0906 13.4746 22.1556C13.4582 22.1577 13.442 22.1611 13.4262 22.1658C10.7706 22.5365 8.12605 21.8813 5.97645 20.3158C5.76601 20.1632 5.56141 20.0027 5.36306 19.8347L6.1374 19.7918C6.18549 19.7892 6.23259 19.7771 6.27601 19.7563C6.31943 19.7354 6.35831 19.7062 6.39042 19.6703C6.42254 19.6344 6.44726 19.5926 6.46316 19.5471C6.47907 19.5016 6.48586 19.4535 6.48314 19.4054C6.47755 19.3084 6.43381 19.2176 6.36146 19.1529C6.28911 19.0881 6.19405 19.0546 6.09707 19.0597L4.46076 19.1502C4.41267 19.1528 4.36557 19.1649 4.32215 19.1858C4.27873 19.2066 4.23985 19.2358 4.20774 19.2717C4.17562 19.3076 4.15091 19.3495 4.135 19.395C4.11909 19.4404 4.1123 19.4886 4.11502 19.5367L4.20521 21.173C4.21037 21.2665 4.25111 21.3545 4.31908 21.4189C4.38705 21.4833 4.4771 21.5193 4.57075 21.5194L4.59128 21.5191C4.63939 21.5165 4.68652 21.5044 4.72996 21.4836C4.7734 21.4628 4.8123 21.4336 4.84442 21.3977C4.87654 21.3618 4.90126 21.3199 4.91715 21.2744C4.93304 21.2289 4.9398 21.1807 4.93702 21.1326L4.89669 20.4005C5.10495 20.5761 5.31943 20.7458 5.54528 20.9094C7.41146 22.2714 9.6628 23.004 11.9732 23.001C12.503 23.001 13.0372 22.9629 13.5714 22.8863C13.586 22.8841 13.6004 22.8811 13.6146 22.8771C14.109 22.8072 14.5975 22.7012 15.0764 22.56C15.6301 22.3992 16.1702 22.195 16.6918 21.9495C17.8365 21.4105 18.8779 20.675 19.7687 19.7764C20.8074 18.7462 21.6264 17.5158 22.176 16.1599C22.3726 15.6848 22.5342 15.196 22.6596 14.6974C22.8008 14.1148 22.8964 13.5414 22.9434 12.9955C23.1751 10.5009 22.5379 7.98681 21.1483 5.91567C21.1216 5.87561 21.0872 5.84123 21.0471 5.8145C21.0071 5.78777 20.9621 5.76922 20.9149 5.75992C20.8676 5.75062 20.819 5.75075 20.7718 5.7603C20.7246 5.76985 20.6797 5.78864 20.6398 5.81558L20.6413 5.81448Z"/>
</mask>
<path d="M3.44847 17.6767C2.15314 15.7452 1.55845 13.4002 1.77513 11.071C1.8195 10.5591 1.90896 10.0224 2.04021 9.47976C2.16084 9.00533 2.31189 8.5485 2.49081 8.11954C3.00382 6.85332 3.7687 5.70452 4.73904 4.74279C5.56989 3.9045 6.54112 3.21817 7.60872 2.71492C8.09583 2.48546 8.60031 2.29482 9.11744 2.14479C9.57513 2.00982 10.0423 1.90944 10.5151 1.84452C10.5314 1.8424 10.5476 1.83897 10.5635 1.83425C13.2179 1.46248 15.8636 2.11876 18.0132 3.68431C18.2236 3.83683 18.4282 3.99742 18.6262 4.16497L17.8522 4.2064C17.7562 4.21061 17.6656 4.25237 17.6001 4.3227C17.5345 4.39303 17.4992 4.4863 17.5018 4.58241C17.5043 4.67852 17.5445 4.76978 17.6137 4.83654C17.6829 4.90329 17.7755 4.9402 17.8717 4.93931L17.8918 4.93895L19.5303 4.85132C19.5655 4.84949 19.5985 4.83665 19.6315 4.82456C19.6403 4.82162 19.6499 4.82126 19.6583 4.81759C19.6829 4.80622 19.703 4.78899 19.7247 4.77249C19.7426 4.75929 19.7617 4.74866 19.7767 4.7329C19.7789 4.7307 19.7822 4.7296 19.7844 4.72703C19.7958 4.71456 19.8002 4.69806 19.8093 4.68413C19.8258 4.6603 19.8423 4.6372 19.853 4.60971C19.8596 4.59211 19.8599 4.57414 19.864 4.55581C19.8695 4.53051 19.8794 4.50705 19.8794 4.48028C19.8794 4.47552 19.8768 4.47112 19.8764 4.46598C19.8764 4.46342 19.8775 4.46122 19.8775 4.45865L19.7841 2.82564C19.7775 2.72889 19.7333 2.63856 19.6609 2.57405C19.5885 2.50954 19.4937 2.476 19.3969 2.48064C19.3488 2.4834 19.3018 2.4956 19.2584 2.51656C19.2151 2.53752 19.1763 2.56682 19.1443 2.60277C19.1123 2.63873 19.0877 2.68065 19.0719 2.72613C19.0561 2.7716 19.0494 2.81975 19.0522 2.86781L19.094 3.60108C18.8841 3.42327 18.6676 3.25328 18.4451 3.09146C16.1301 1.40529 13.2803 0.703905 10.4186 1.11454C10.404 1.11668 10.3896 1.11974 10.3754 1.12371C9.88103 1.19365 9.39247 1.29964 8.91359 1.44085C8.35994 1.60165 7.8198 1.80577 7.29818 2.0513C6.15348 2.59032 5.11211 3.3258 4.22135 4.22437C3.18255 5.25465 2.36358 6.48497 1.814 7.84089C1.61743 8.31598 1.4558 8.80479 1.3304 9.30341C1.19306 9.86276 1.09819 10.4317 1.04662 11.0053C0.814908 13.5 1.45213 16.014 2.84169 18.0851C2.86836 18.1253 2.90271 18.1597 2.94276 18.1865C2.98281 18.2133 3.02776 18.2319 3.07503 18.2412C3.1223 18.2506 3.17096 18.2505 3.21818 18.2409C3.26541 18.2314 3.31028 18.2126 3.35021 18.1856C3.39021 18.1588 3.42453 18.1243 3.45121 18.0842C3.47788 18.0441 3.4964 17.9991 3.50569 17.9519C3.51499 17.9046 3.51488 17.856 3.50538 17.8088C3.49587 17.7616 3.47716 17.7167 3.45031 17.6767H3.44847ZM20.6413 5.81448C20.6013 5.84131 20.5669 5.87576 20.5403 5.91586C20.5136 5.95597 20.4951 6.00093 20.4858 6.04819C20.4765 6.09545 20.4766 6.14407 20.4861 6.19129C20.4956 6.23851 20.5143 6.28339 20.5412 6.32337C21.8365 8.25483 22.4312 10.5998 22.2145 12.9291C22.1661 13.4654 22.0774 13.9973 21.9494 14.5203C21.8325 14.9841 21.6819 15.4387 21.4988 15.8805C20.9858 17.1468 20.2209 18.2956 19.2506 19.2573C18.4197 20.0956 17.4485 20.7819 16.3809 21.2852C15.8938 21.5146 15.3893 21.7052 14.8722 21.8553C14.4145 21.9903 13.9473 22.0906 13.4746 22.1556C13.4582 22.1577 13.442 22.1611 13.4262 22.1658C10.7706 22.5365 8.12605 21.8813 5.97645 20.3158C5.76601 20.1632 5.56141 20.0027 5.36306 19.8347L6.1374 19.7918C6.18549 19.7892 6.23259 19.7771 6.27601 19.7563C6.31943 19.7354 6.35831 19.7062 6.39042 19.6703C6.42254 19.6344 6.44726 19.5926 6.46316 19.5471C6.47907 19.5016 6.48586 19.4535 6.48314 19.4054C6.47755 19.3084 6.43381 19.2176 6.36146 19.1529C6.28911 19.0881 6.19405 19.0546 6.09707 19.0597L4.46076 19.1502C4.41267 19.1528 4.36557 19.1649 4.32215 19.1858C4.27873 19.2066 4.23985 19.2358 4.20774 19.2717C4.17562 19.3076 4.15091 19.3495 4.135 19.395C4.11909 19.4404 4.1123 19.4886 4.11502 19.5367L4.20521 21.173C4.21037 21.2665 4.25111 21.3545 4.31908 21.4189C4.38705 21.4833 4.4771 21.5193 4.57075 21.5194L4.59128 21.5191C4.63939 21.5165 4.68652 21.5044 4.72996 21.4836C4.7734 21.4628 4.8123 21.4336 4.84442 21.3977C4.87654 21.3618 4.90126 21.3199 4.91715 21.2744C4.93304 21.2289 4.9398 21.1807 4.93702 21.1326L4.89669 20.4005C5.10495 20.5761 5.31943 20.7458 5.54528 20.9094C7.41146 22.2714 9.6628 23.004 11.9732 23.001C12.503 23.001 13.0372 22.9629 13.5714 22.8863C13.586 22.8841 13.6004 22.8811 13.6146 22.8771C14.109 22.8072 14.5975 22.7012 15.0764 22.56C15.6301 22.3992 16.1702 22.195 16.6918 21.9495C17.8365 21.4105 18.8779 20.675 19.7687 19.7764C20.8074 18.7462 21.6264 17.5158 22.176 16.1599C22.3726 15.6848 22.5342 15.196 22.6596 14.6974C22.8008 14.1148 22.8964 13.5414 22.9434 12.9955C23.1751 10.5009 22.5379 7.98681 21.1483 5.91567C21.1216 5.87561 21.0872 5.84123 21.0471 5.8145C21.0071 5.78777 20.9621 5.76922 20.9149 5.75992C20.8676 5.75062 20.819 5.75075 20.7718 5.7603C20.7246 5.76985 20.6797 5.78864 20.6398 5.81558L20.6413 5.81448Z" fill="black"/>
<path d="M3.44847 17.6767C2.15314 15.7452 1.55845 13.4002 1.77513 11.071C1.8195 10.5591 1.90896 10.0224 2.04021 9.47976C2.16084 9.00533 2.31189 8.5485 2.49081 8.11954C3.00382 6.85332 3.7687 5.70452 4.73904 4.74279C5.56989 3.9045 6.54112 3.21817 7.60872 2.71492C8.09583 2.48546 8.60031 2.29482 9.11744 2.14479C9.57513 2.00982 10.0423 1.90944 10.5151 1.84452C10.5314 1.8424 10.5476 1.83897 10.5635 1.83425C13.2179 1.46248 15.8636 2.11876 18.0132 3.68431C18.2236 3.83683 18.4282 3.99742 18.6262 4.16497L17.8522 4.2064C17.7562 4.21061 17.6656 4.25237 17.6001 4.3227C17.5345 4.39303 17.4992 4.4863 17.5018 4.58241C17.5043 4.67852 17.5445 4.76978 17.6137 4.83654C17.6829 4.90329 17.7755 4.9402 17.8717 4.93931L17.8918 4.93895L19.5303 4.85132C19.5655 4.84949 19.5985 4.83665 19.6315 4.82456C19.6403 4.82162 19.6499 4.82126 19.6583 4.81759C19.6829 4.80622 19.703 4.78899 19.7247 4.77249C19.7426 4.75929 19.7617 4.74866 19.7767 4.7329C19.7789 4.7307 19.7822 4.7296 19.7844 4.72703C19.7958 4.71456 19.8002 4.69806 19.8093 4.68413C19.8258 4.6603 19.8423 4.6372 19.853 4.60971C19.8596 4.59211 19.8599 4.57414 19.864 4.55581C19.8695 4.53051 19.8794 4.50705 19.8794 4.48028C19.8794 4.47552 19.8768 4.47112 19.8764 4.46598C19.8764 4.46342 19.8775 4.46122 19.8775 4.45865L19.7841 2.82564C19.7775 2.72889 19.7333 2.63856 19.6609 2.57405C19.5885 2.50954 19.4937 2.476 19.3969 2.48064C19.3488 2.4834 19.3018 2.4956 19.2584 2.51656C19.2151 2.53752 19.1763 2.56682 19.1443 2.60277C19.1123 2.63873 19.0877 2.68065 19.0719 2.72613C19.0561 2.7716 19.0494 2.81975 19.0522 2.86781L19.094 3.60108C18.8841 3.42327 18.6676 3.25328 18.4451 3.09146C16.1301 1.40529 13.2803 0.703905 10.4186 1.11454C10.404 1.11668 10.3896 1.11974 10.3754 1.12371C9.88103 1.19365 9.39247 1.29964 8.91359 1.44085C8.35994 1.60165 7.8198 1.80577 7.29818 2.0513C6.15348 2.59032 5.11211 3.3258 4.22135 4.22437C3.18255 5.25465 2.36358 6.48497 1.814 7.84089C1.61743 8.31598 1.4558 8.80479 1.3304 9.30341C1.19306 9.86276 1.09819 10.4317 1.04662 11.0053C0.814908 13.5 1.45213 16.014 2.84169 18.0851C2.86836 18.1253 2.90271 18.1597 2.94276 18.1865C2.98281 18.2133 3.02776 18.2319 3.07503 18.2412C3.1223 18.2506 3.17096 18.2505 3.21818 18.2409C3.26541 18.2314 3.31028 18.2126 3.35021 18.1856C3.39021 18.1588 3.42453 18.1243 3.45121 18.0842C3.47788 18.0441 3.4964 17.9991 3.50569 17.9519C3.51499 17.9046 3.51488 17.856 3.50538 17.8088C3.49587 17.7616 3.47716 17.7167 3.45031 17.6767H3.44847ZM20.6413 5.81448C20.6013 5.84131 20.5669 5.87576 20.5403 5.91586C20.5136 5.95597 20.4951 6.00093 20.4858 6.04819C20.4765 6.09545 20.4766 6.14407 20.4861 6.19129C20.4956 6.23851 20.5143 6.28339 20.5412 6.32337C21.8365 8.25483 22.4312 10.5998 22.2145 12.9291C22.1661 13.4654 22.0774 13.9973 21.9494 14.5203C21.8325 14.9841 21.6819 15.4387 21.4988 15.8805C20.9858 17.1468 20.2209 18.2956 19.2506 19.2573C18.4197 20.0956 17.4485 20.7819 16.3809 21.2852C15.8938 21.5146 15.3893 21.7052 14.8722 21.8553C14.4145 21.9903 13.9473 22.0906 13.4746 22.1556C13.4582 22.1577 13.442 22.1611 13.4262 22.1658C10.7706 22.5365 8.12605 21.8813 5.97645 20.3158C5.76601 20.1632 5.56141 20.0027 5.36306 19.8347L6.1374 19.7918C6.18549 19.7892 6.23259 19.7771 6.27601 19.7563C6.31943 19.7354 6.35831 19.7062 6.39042 19.6703C6.42254 19.6344 6.44726 19.5926 6.46316 19.5471C6.47907 19.5016 6.48586 19.4535 6.48314 19.4054C6.47755 19.3084 6.43381 19.2176 6.36146 19.1529C6.28911 19.0881 6.19405 19.0546 6.09707 19.0597L4.46076 19.1502C4.41267 19.1528 4.36557 19.1649 4.32215 19.1858C4.27873 19.2066 4.23985 19.2358 4.20774 19.2717C4.17562 19.3076 4.15091 19.3495 4.135 19.395C4.11909 19.4404 4.1123 19.4886 4.11502 19.5367L4.20521 21.173C4.21037 21.2665 4.25111 21.3545 4.31908 21.4189C4.38705 21.4833 4.4771 21.5193 4.57075 21.5194L4.59128 21.5191C4.63939 21.5165 4.68652 21.5044 4.72996 21.4836C4.7734 21.4628 4.8123 21.4336 4.84442 21.3977C4.87654 21.3618 4.90126 21.3199 4.91715 21.2744C4.93304 21.2289 4.9398 21.1807 4.93702 21.1326L4.89669 20.4005C5.10495 20.5761 5.31943 20.7458 5.54528 20.9094C7.41146 22.2714 9.6628 23.004 11.9732 23.001C12.503 23.001 13.0372 22.9629 13.5714 22.8863C13.586 22.8841 13.6004 22.8811 13.6146 22.8771C14.109 22.8072 14.5975 22.7012 15.0764 22.56C15.6301 22.3992 16.1702 22.195 16.6918 21.9495C17.8365 21.4105 18.8779 20.675 19.7687 19.7764C20.8074 18.7462 21.6264 17.5158 22.176 16.1599C22.3726 15.6848 22.5342 15.196 22.6596 14.6974C22.8008 14.1148 22.8964 13.5414 22.9434 12.9955C23.1751 10.5009 22.5379 7.98681 21.1483 5.91567C21.1216 5.87561 21.0872 5.84123 21.0471 5.8145C21.0071 5.78777 20.9621 5.76922 20.9149 5.75992C20.8676 5.75062 20.819 5.75075 20.7718 5.7603C20.7246 5.76985 20.6797 5.78864 20.6398 5.81558L20.6413 5.81448Z" stroke="black" stroke-width="0.2" mask="url(#path-2-outside-1_355_58)"/>
</g>
<defs>
<clipPath id="clip0_355_58">
<rect width="24" height="24" fill="white"/>
</clipPath>
</defs>
</svg>
