<svg width="40" height="40" viewBox="0 0 40 40" fill="none" xmlns="http://www.w3.org/2000/svg">
<path d="M19.88 5H21.1222C22.1198 5 22.9345 5.81645 22.9345 6.8123V7.43166H24.5902C25.6177 7.43166 26.457 8.2727 26.457 9.29852V10.5443H14.5469V9.29852C14.5469 8.2727 15.3862 7.43166 16.4137 7.43166H18.0677V6.8123C18.0677 5.81465 18.8841 5 19.88 5Z" stroke="#9C9C9C" stroke-width="1.24225" stroke-miterlimit="10" stroke-linecap="round" stroke-linejoin="round"/>
<path d="M26.4551 9.29883H29.8457C30.4809 9.29883 31 9.81789 31 10.4531V34.3862C31 35.0214 30.4809 35.5404 29.8457 35.5404H11.1525C10.5191 35.5404 10 35.0214 10 34.3862V10.4531C10 9.81789 10.5191 9.29883 11.1525 9.29883H14.5449" stroke="#9C9C9C" stroke-width="1.24225" stroke-miterlimit="10" stroke-linecap="round" stroke-linejoin="round"/>
<path d="M20.7703 14.4375H24.4143M20.7703 17.2369H27.2331M20.7703 21.4087H24.4143M20.7703 24.2082H27.2331M20.7703 28.3782H24.4143M20.7703 31.1776H27.2331M13.8906 16.1724L15.0994 17.1964L17.3762 14.4797M13.7656 20.9407H17.5011V24.6744H13.7656V20.9407ZM13.7656 27.9102H17.5011V31.6456H13.7656V27.9102Z" stroke="#9C9C9C" stroke-width="1.24225" stroke-miterlimit="10" stroke-linecap="round" stroke-linejoin="round"/>
</svg>
