<svg width="40" height="40" viewBox="0 0 40 40" fill="none" xmlns="http://www.w3.org/2000/svg">
<g id="Frame 2147207274">
<g id="Group 1597883271">
<g id="Group">
<path id="Vector" d="M33.9994 10.2914C34.0114 9.81295 33.8498 9.34633 33.5444 8.97782C33.239 8.60931 32.8105 8.36383 32.3381 8.28678C28.6524 7.70077 24.6173 6.55859 21.265 5.15456C21.023 5.05255 20.763 5 20.5003 5C20.2377 5 19.9777 5.05255 19.7357 5.15456C16.3834 6.55859 12.3476 7.70011 8.66186 8.28678C8.18956 8.36369 7.76108 8.60903 7.45568 8.97743C7.15029 9.34583 6.98863 9.81236 7.00062 10.2907C7.2386 19.4169 8.9257 29.4434 19.6356 34.618C19.9067 34.7486 20.203 34.8135 20.5 34.8135C20.797 34.8135 21.0933 34.7486 21.3638 34.618C32.0743 29.4447 33.7614 19.4176 33.9994 10.2914ZM20.7877 33.4241C20.6978 33.4664 20.5997 33.4883 20.5003 33.4883C20.401 33.4883 20.3029 33.4664 20.213 33.4241C10.1435 28.5597 8.55314 18.9827 8.32577 10.2569C8.32141 10.0997 8.37412 9.9462 8.47417 9.82482C8.57422 9.70345 8.71484 9.62241 8.87001 9.59668C12.6552 8.99476 16.8023 7.82142 20.2481 6.37828C20.3277 6.3441 20.4134 6.32648 20.5 6.32648C20.5866 6.32648 20.6723 6.3441 20.7519 6.37828C24.1977 7.82142 28.3448 8.99476 32.13 9.59668C32.2852 9.62255 32.4258 9.70373 32.5259 9.82521C32.6259 9.9467 32.6786 10.1003 32.6742 10.2576C32.4469 18.9841 30.8566 28.561 20.787 33.4248L20.7877 33.4241ZM24.4774 16.6049C24.4784 16.0131 24.3469 15.4286 24.0924 14.8942C23.838 14.3599 23.4672 13.8894 23.0071 13.5171C22.0724 12.7567 20.8474 12.4664 19.6495 12.7163C18.1513 13.0292 16.9303 14.2469 16.6134 15.7458C16.3045 17.2088 16.8096 18.6771 17.9127 19.6205L16.8474 22.8143C16.7135 23.2174 16.7811 23.6642 17.0297 24.0089C17.2783 24.3536 17.68 24.5597 18.1049 24.5597H22.8951C23.32 24.5597 23.7217 24.3542 23.9703 24.0089C24.2189 23.6642 24.2872 23.2174 24.1526 22.8143L23.088 19.6205C23.5241 19.2484 23.8742 18.786 24.1141 18.2653C24.3539 17.7447 24.4779 17.1782 24.4774 16.6049ZM21.9451 18.823C21.8225 18.9032 21.7299 19.0218 21.6818 19.1602C21.6337 19.2986 21.6328 19.449 21.6793 19.588L22.8951 23.2339H18.1056L19.3207 19.588C19.3672 19.449 19.3663 19.2986 19.3182 19.1602C19.2701 19.0218 19.1775 18.9032 19.0549 18.823C18.1275 18.2171 17.6787 17.1173 17.9107 16.0202C18.0404 15.4303 18.369 14.9028 18.8414 14.5264C19.3138 14.1499 19.9013 13.9474 20.5053 13.9526C21.1138 13.9526 21.6906 14.1555 22.1705 14.5459C22.4775 14.794 22.7249 15.1078 22.8947 15.4641C23.0645 15.8204 23.1523 16.2102 23.1516 16.6049C23.1516 17.4998 22.7008 18.3298 21.9451 18.823Z" fill="#737373"/>
</g>
</g>
</g>
</svg>
