<svg width="24" height="24" viewBox="0 0 24 24" fill="none" xmlns="http://www.w3.org/2000/svg">
<path d="M18.6448 15.843C17.5163 15.843 16.4995 16.3303 15.7939 17.1055L9.44682 13.1745C9.62108 12.729 9.71042 12.2549 9.71023 11.7766C9.71045 11.2983 9.62111 10.8242 9.44682 10.3787L15.7939 6.44751C16.4996 7.22274 17.5163 7.71028 18.6448 7.71028C20.7706 7.71028 22.5 5.98086 22.5 3.85505C22.5 1.72923 20.7706 0 18.6448 0C16.519 0 14.7896 1.72941 14.7896 3.85523C14.7895 4.33352 14.8788 4.80761 15.053 5.25306L8.70609 9.18415C8.00041 8.40892 6.98372 7.92138 5.85523 7.92138C3.72941 7.92138 2 9.65098 2 11.7766C2 13.9024 3.72941 15.6318 5.85523 15.6318C6.98367 15.6318 8.00046 15.1445 8.70609 14.3691L15.053 18.3002C14.8788 18.7457 14.7895 19.2198 14.7896 19.6982C14.7896 21.8238 16.519 23.5532 18.6448 23.5532C20.7706 23.5532 22.5 21.8238 22.5 19.6982C22.5 17.5724 20.7706 15.843 18.6448 15.843ZM16.1953 3.85523C16.1953 2.5046 17.2942 1.40579 18.6448 1.40579C19.9954 1.40579 21.0942 2.5046 21.0942 3.85523C21.0942 5.20586 19.9954 6.30467 18.6448 6.30467C17.2941 6.30467 16.1953 5.20581 16.1953 3.85523ZM5.85523 14.2261C4.50442 14.2261 3.4056 13.1272 3.4056 11.7766C3.4056 10.426 4.50442 9.32717 5.85523 9.32717C7.20586 9.32717 8.30449 10.426 8.30449 11.7766C8.30449 13.1272 7.20581 14.2261 5.85523 14.2261ZM16.1953 19.698C16.1953 18.3474 17.2942 17.2486 18.6448 17.2486C19.9954 17.2486 21.0942 18.3474 21.0942 19.698C21.0942 21.0486 19.9954 22.1474 18.6448 22.1474C17.2941 22.1474 16.1953 21.0486 16.1953 19.698V19.698Z" fill="black"/>
</svg>
