<svg width="40" height="40" viewBox="0 0 40 40" fill="none" xmlns="http://www.w3.org/2000/svg">
<path d="M39.5928 11.475L26.1553 4.09636C26.0401 4.03314 25.9108 4 25.7793 4C25.6479 4 25.5186 4.03314 25.4034 4.09636L20.3502 6.87105C20.2349 6.9034 20.1285 6.96177 20.0393 7.04168L11.9658 11.475C11.8431 11.5423 11.7407 11.6414 11.6694 11.7619C11.5981 11.8823 11.5605 12.0197 11.5605 12.1597V13.7571H2.54688C2.11539 13.7571 1.76562 14.1071 1.76562 14.5383C1.76562 14.9698 2.11539 15.3196 2.54688 15.3196H11.5605V18.1321H7.08148C6.65 18.1321 6.30023 18.4821 6.30023 18.9133C6.30023 19.3448 6.65 19.6946 7.08148 19.6946H11.5605V23.7571H4.99805C4.56656 23.7571 4.2168 24.1071 4.2168 24.5383C4.2168 24.9698 4.56656 25.3196 4.99805 25.3196H11.5605V26.9171C11.5605 27.2021 11.7159 27.4646 11.9659 27.6019L25.4034 34.9805C25.5205 35.0449 25.6499 35.0769 25.7793 35.0769C25.9087 35.0769 26.0381 35.0449 26.1553 34.9805L39.5928 27.6019C39.7155 27.5345 39.8178 27.4354 39.8891 27.315C39.9604 27.1945 39.998 27.0571 39.998 26.9171V23.4186C39.998 22.9874 39.6483 22.6374 39.2168 22.6374C38.7853 22.6374 38.4355 22.9874 38.4355 23.4186V26.4548L26.5605 32.9755V20.0007L30.3371 17.927V21.218C30.3371 21.3206 30.3572 21.4222 30.3965 21.517C30.4357 21.6118 30.4933 21.698 30.5658 21.7705C30.6384 21.8431 30.7245 21.9006 30.8193 21.9399C30.9141 21.9791 31.0158 21.9993 31.1184 21.9993C31.2477 21.9993 31.3774 21.9672 31.4949 21.9025L34.3746 20.3177C34.4971 20.2502 34.5992 20.1511 34.6703 20.0307C34.7414 19.9103 34.7789 19.773 34.7789 19.6332V15.488L38.4355 13.4802V17.1686C38.4355 17.6001 38.7853 17.9499 39.2168 17.9499C39.6483 17.9499 39.998 17.6001 39.998 17.1686V12.1597C39.998 11.8747 39.8428 11.6122 39.5928 11.475ZM24.998 32.9755L13.123 26.4548V13.4803L24.998 20.0006V32.9755ZM25.7793 18.6471L13.965 12.1597L17.6781 10.1209L29.4927 16.6083L25.7793 18.6471ZM31.1159 15.7169L19.3013 9.22941L20.5822 8.52629L32.3964 15.0138L31.1159 15.7169ZM33.2164 19.1714L31.8996 19.8963V17.0691L33.2164 16.3458V19.1714ZM34.0197 14.1223L22.2054 7.63488L25.7793 5.67261L37.5936 12.1597L34.0197 14.1223Z" fill="#148ABF"/>
<path d="M39.2188 19.5134C39.0116 19.5137 38.813 19.596 38.6664 19.7423C38.5203 19.8891 38.438 20.0876 38.4375 20.2947C38.4375 20.5 38.5211 20.7017 38.6664 20.847C38.8117 20.9923 39.0134 21.0759 39.2188 21.0759C39.4241 21.0759 39.6258 20.9923 39.7711 20.847C39.917 20.7002 39.9993 20.5017 40 20.2947C40 20.0884 39.9164 19.8876 39.7711 19.7423C39.6245 19.596 39.4259 19.5137 39.2188 19.5134ZM1.90094 23.7577H0.78125C0.349766 23.7577 0 24.1078 0 24.539C0 24.9705 0.349766 25.3202 0.78125 25.3202H1.90094C2.33242 25.3202 2.68219 24.9705 2.68219 24.539C2.68219 24.1078 2.33242 23.7577 1.90094 23.7577ZM4.74 18.914C4.74 18.7087 4.65641 18.5073 4.51078 18.362C4.36414 18.2158 4.16576 18.1335 3.95875 18.1328C3.75164 18.1334 3.55314 18.2158 3.40641 18.362C3.26009 18.5085 3.17778 18.707 3.1775 18.9141C3.1775 19.1197 3.26016 19.3211 3.40641 19.4664C3.55324 19.6124 3.75169 19.6946 3.95875 19.6953C4.16414 19.6953 4.36555 19.612 4.51078 19.4664C4.65699 19.3197 4.73936 19.1212 4.74 18.9141V18.914Z" fill="#148ABF"/>
</svg>
