<svg width="13" height="13" viewBox="0 0 13 13" fill="none" xmlns="http://www.w3.org/2000/svg">
<path id="Vector" d="M6.39864 0.0736779L4.9373 4.57123C4.93033 4.59265 4.91677 4.61132 4.89855 4.62455C4.88032 4.63779 4.85838 4.64491 4.83586 4.64491H0.106855C0.00354609 4.64491 -0.0394324 4.77712 0.0441894 4.83785L3.87003 7.61745C3.90741 7.64462 3.92302 7.69273 3.90874 7.73671L2.4474 12.2343C2.4155 12.3325 2.52795 12.4142 2.6115 12.3535L6.43735 9.57392C6.45556 9.56068 6.4775 9.55355 6.50002 9.55355C6.52253 9.55355 6.54447 9.56068 6.56268 9.57392L10.3885 12.3535C10.4721 12.4143 10.5845 12.3326 10.5526 12.2343L9.09129 7.73671C9.07701 7.6928 9.09262 7.64462 9.13 7.61745L12.9558 4.83785C13.0394 4.77712 12.9965 4.64491 12.8932 4.64491H8.16418C8.14165 4.6449 8.11971 4.63777 8.10149 4.62454C8.08327 4.61131 8.0697 4.59265 8.06273 4.57123L6.60139 0.0736779C6.56956 -0.0245593 6.43054 -0.0245593 6.39864 0.0736779Z" fill="#F45A29"/>
</svg>
