<svg width="24" height="28" viewBox="0 0 24 28" fill="none" xmlns="http://www.w3.org/2000/svg">
<path d="M3.33535 27.796H19.8046C20.1587 27.7956 20.4981 27.6631 20.7484 27.4277C20.9988 27.1922 21.1396 26.8729 21.14 26.5399V3.93081C21.1396 3.5978 20.9988 3.27854 20.7484 3.04307C20.4981 2.8076 20.1587 2.67514 19.8046 2.67475H15.1309V2.25606C15.1305 1.92305 14.9897 1.60379 14.7394 1.36832C14.489 1.13285 14.1496 1.00039 13.7956 1L9.34442 1C8.99039 1.00039 8.65098 1.13285 8.40064 1.36832C8.1503 1.60379 8.00948 1.92305 8.00907 2.25606V2.67475H3.33535C2.98132 2.67514 2.64191 2.8076 2.39157 3.04307C2.14123 3.27854 2.00041 3.5978 2 3.93081V26.5399C2.00041 26.8729 2.14123 27.1922 2.39157 27.4277C2.64191 27.6631 2.98132 27.7956 3.33535 27.796ZM8.8993 2.25606C8.89942 2.14505 8.94635 2.03862 9.0298 1.96013C9.11325 1.88163 9.2264 1.83749 9.34442 1.83737H13.7956C13.9136 1.83749 14.0267 1.88163 14.1102 1.96013C14.1936 2.03862 14.2406 2.14505 14.2407 2.25606V2.67475H8.8993V2.25606ZM7.56395 3.51212H15.576V4.3495C15.5759 4.46051 15.529 4.56694 15.4455 4.64543C15.3621 4.72393 15.2489 4.76808 15.1309 4.76819H8.00907C7.89105 4.76808 7.7779 4.72393 7.69446 4.64543C7.61101 4.56694 7.56407 4.46051 7.56395 4.3495V3.51212ZM2.89023 3.93081C2.89035 3.8198 2.93728 3.71337 3.02073 3.63488C3.10418 3.55638 3.21733 3.51224 3.33535 3.51212H6.67372V4.3495C6.67413 4.68251 6.81495 5.00177 7.06529 5.23724C7.31563 5.47271 7.65504 5.60517 8.00907 5.60556H15.1309C15.485 5.60517 15.8244 5.47271 16.0747 5.23724C16.325 5.00177 16.4659 4.68251 16.4663 4.3495V3.51212H19.8046C19.9227 3.51224 20.0358 3.55638 20.1193 3.63488C20.2027 3.71337 20.2496 3.8198 20.2498 3.93081V26.5399C20.2496 26.6509 20.2027 26.7574 20.1193 26.8359C20.0358 26.9144 19.9227 26.9585 19.8046 26.9586H3.33535C3.21733 26.9585 3.10418 26.9144 3.02073 26.8359C2.93728 26.7574 2.89035 26.6509 2.89023 26.5399V3.93081Z" fill="black"/>
<path d="M17.4524 15.3761H8.1495C8.03735 15.3761 7.9298 15.4207 7.85049 15.5C7.77119 15.5793 7.72664 15.6868 7.72664 15.799C7.72664 15.9111 7.77119 16.0187 7.85049 16.098C7.9298 16.1773 8.03735 16.2218 8.1495 16.2218H17.4524C17.5646 16.2218 17.6721 16.1773 17.7514 16.098C17.8307 16.0187 17.8753 15.9111 17.8753 15.799C17.8753 15.6868 17.8307 15.5793 17.7514 15.5C17.6721 15.4207 17.5646 15.3761 17.4524 15.3761ZM8.1495 17.9133H13.2238C13.336 17.9133 13.4435 17.8687 13.5228 17.7894C13.6021 17.7101 13.6467 17.6026 13.6467 17.4904C13.6467 17.3783 13.6021 17.2707 13.5228 17.1914C13.4435 17.1121 13.336 17.0675 13.2238 17.0675H8.1495C8.03735 17.0675 7.9298 17.1121 7.85049 17.1914C7.77119 17.2707 7.72664 17.3783 7.72664 17.4904C7.72664 17.6026 7.77119 17.7101 7.85049 17.7894C7.9298 17.8687 8.03735 17.9133 8.1495 17.9133ZM17.4524 19.6047H8.1495C8.03735 19.6047 7.9298 19.6493 7.85049 19.7286C7.77119 19.8079 7.72664 19.9154 7.72664 20.0276C7.72664 20.1397 7.77119 20.2473 7.85049 20.3266C7.9298 20.4059 8.03735 20.4504 8.1495 20.4504H17.4524C17.5646 20.4504 17.6721 20.4059 17.7514 20.3266C17.8307 20.2473 17.8753 20.1397 17.8753 20.0276C17.8753 19.9154 17.8307 19.8079 17.7514 19.7286C17.6721 19.6493 17.5646 19.6047 17.4524 19.6047ZM8.1495 22.1419H13.2238C13.336 22.1419 13.4435 22.0973 13.5228 22.018C13.6021 21.9387 13.6467 21.8312 13.6467 21.719C13.6467 21.6069 13.6021 21.4993 13.5228 21.42C13.4435 21.3407 13.336 21.2962 13.2238 21.2962H8.1495C8.03735 21.2962 7.9298 21.3407 7.85049 21.42C7.77119 21.4993 7.72664 21.6069 7.72664 21.719C7.72664 21.8312 7.77119 21.9387 7.85049 22.018C7.9298 22.0973 8.03735 22.1419 8.1495 22.1419ZM17.4524 23.8333H8.1495C8.03735 23.8333 7.9298 23.8779 7.85049 23.9572C7.77119 24.0365 7.72664 24.144 7.72664 24.2562C7.72664 24.3683 7.77119 24.4759 7.85049 24.5552C7.9298 24.6345 8.03735 24.679 8.1495 24.679H17.4524C17.5646 24.679 17.6721 24.6345 17.7514 24.5552C17.8307 24.4759 17.8753 24.3683 17.8753 24.2562C17.8753 24.144 17.8307 24.0365 17.7514 23.9572C17.6721 23.8779 17.5646 23.8333 17.4524 23.8333ZM13.2238 25.5248H8.1495C8.03735 25.5248 7.9298 25.5693 7.85049 25.6486C7.77119 25.7279 7.72664 25.8355 7.72664 25.9476C7.72664 26.0598 7.77119 26.1673 7.85049 26.2466C7.9298 26.3259 8.03735 26.3705 8.1495 26.3705H13.2238C13.336 26.3705 13.4435 26.3259 13.5228 26.2466C13.6021 26.1673 13.6467 26.0598 13.6467 25.9476C13.6467 25.8355 13.6021 25.7279 13.5228 25.6486C13.4435 25.5693 13.336 25.5248 13.2238 25.5248ZM4.34376 11.9932H18.2982C18.4103 11.9932 18.5179 11.9487 18.5972 11.8694C18.6765 11.7901 18.721 11.6825 18.721 11.5704C18.721 11.4582 18.6765 11.3507 18.5972 11.2714C18.5179 11.1921 18.4103 11.1475 18.2982 11.1475H4.34376C4.23161 11.1475 4.12405 11.1921 4.04475 11.2714C3.96545 11.3507 3.9209 11.4582 3.9209 11.5704C3.9209 11.6825 3.96545 11.7901 4.04475 11.8694C4.12405 11.9487 4.23161 11.9932 4.34376 11.9932ZM4.34376 13.6847H11.9552C12.0674 13.6847 12.175 13.6401 12.2543 13.5608C12.3336 13.4815 12.3781 13.374 12.3781 13.2618C12.3781 13.1497 12.3336 13.0421 12.2543 12.9628C12.175 12.8835 12.0674 12.8389 11.9552 12.8389H4.34376C4.23161 12.8389 4.12405 12.8835 4.04475 12.9628C3.96545 13.0421 3.9209 13.1497 3.9209 13.2618C3.9209 13.374 3.96545 13.4815 4.04475 13.5608C4.12405 13.6401 4.23161 13.6847 4.34376 13.6847ZM6.45806 15.3761C6.34591 15.3761 6.23835 15.4207 6.15905 15.5C6.07975 15.5793 6.0352 15.6868 6.0352 15.799V17.4904C6.0352 17.6026 6.07975 17.7101 6.15905 17.7894C6.23835 17.8687 6.34591 17.9133 6.45806 17.9133C6.57021 17.9133 6.67777 17.8687 6.75707 17.7894C6.83637 17.7101 6.88092 17.6026 6.88092 17.4904V15.799C6.88092 15.6868 6.83637 15.5793 6.75707 15.5C6.67777 15.4207 6.57021 15.3761 6.45806 15.3761ZM6.45806 19.6047C6.34591 19.6047 6.23835 19.6493 6.15905 19.7286C6.07975 19.8079 6.0352 19.9154 6.0352 20.0276V21.719C6.0352 21.8312 6.07975 21.9387 6.15905 22.018C6.23835 22.0973 6.34591 22.1419 6.45806 22.1419C6.57021 22.1419 6.67777 22.0973 6.75707 22.018C6.83637 21.9387 6.88092 21.8312 6.88092 21.719V20.0276C6.88092 19.9154 6.83637 19.8079 6.75707 19.7286C6.67777 19.6493 6.57021 19.6047 6.45806 19.6047ZM6.45806 23.8333C6.34591 23.8333 6.23835 23.8779 6.15905 23.9572C6.07975 24.0365 6.0352 24.144 6.0352 24.2562V25.9476C6.0352 26.0598 6.07975 26.1673 6.15905 26.2466C6.23835 26.3259 6.34591 26.3705 6.45806 26.3705C6.57021 26.3705 6.67777 26.3259 6.75707 26.2466C6.83637 26.1673 6.88092 26.0598 6.88092 25.9476V24.2562C6.88092 24.144 6.83637 24.0365 6.75707 23.9572C6.67777 23.8779 6.57021 23.8333 6.45806 23.8333ZM5.18948 16.2218H4.76662C4.65447 16.2218 4.54691 16.2664 4.46761 16.3457C4.38831 16.425 4.34376 16.5325 4.34376 16.6447C4.34376 16.7568 4.38831 16.8644 4.46761 16.9437C4.54691 17.023 4.65447 17.0675 4.76662 17.0675H5.18948C5.30163 17.0675 5.40919 17.023 5.48849 16.9437C5.56779 16.8644 5.61234 16.7568 5.61234 16.6447C5.61234 16.5325 5.56779 16.425 5.48849 16.3457C5.40919 16.2664 5.30163 16.2218 5.18948 16.2218ZM5.18948 20.4504H4.76662C4.65447 20.4504 4.54691 20.495 4.46761 20.5743C4.38831 20.6536 4.34376 20.7611 4.34376 20.8733C4.34376 20.9854 4.38831 21.093 4.46761 21.1723C4.54691 21.2516 4.65447 21.2962 4.76662 21.2962H5.18948C5.30163 21.2962 5.40919 21.2516 5.48849 21.1723C5.56779 21.093 5.61234 20.9854 5.61234 20.8733C5.61234 20.7611 5.56779 20.6536 5.48849 20.5743C5.40919 20.495 5.30163 20.4504 5.18948 20.4504ZM5.18948 24.679H4.76662C4.65447 24.679 4.54691 24.7236 4.46761 24.8029C4.38831 24.8822 4.34376 24.9897 4.34376 25.1019C4.34376 25.214 4.38831 25.3216 4.46761 25.4009C4.54691 25.4802 4.65447 25.5248 4.76662 25.5248H5.18948C5.30163 25.5248 5.40919 25.4802 5.48849 25.4009C5.56779 25.3216 5.61234 25.214 5.61234 25.1019C5.61234 24.9897 5.56779 24.8822 5.48849 24.8029C5.40919 24.7236 5.30163 24.679 5.18948 24.679ZM7.19807 7.55319H7.62093V9.66749C7.62093 9.77964 7.66548 9.8872 7.74478 9.9665C7.82408 10.0458 7.93164 10.0904 8.04379 10.0904C8.15594 10.0904 8.26349 10.0458 8.3428 9.9665C8.4221 9.8872 8.46665 9.77964 8.46665 9.66749V7.55319H8.88951C9.00166 7.55319 9.10921 7.50864 9.18852 7.42934C9.26782 7.35004 9.31237 7.24248 9.31237 7.13033C9.31237 7.01818 9.26782 6.91062 9.18852 6.83132C9.10921 6.75202 9.00166 6.70747 8.88951 6.70747H7.19807C7.08592 6.70747 6.97836 6.75202 6.89906 6.83132C6.81976 6.91062 6.77521 7.01818 6.77521 7.13033C6.77521 7.24248 6.81976 7.35004 6.89906 7.42934C6.97836 7.50864 7.08592 7.55319 7.19807 7.55319ZM14.9652 10.0904H15.4438C15.556 10.0904 15.6636 10.0458 15.7429 9.9665C15.8222 9.8872 15.8667 9.77964 15.8667 9.66749C15.8667 9.55534 15.8222 9.44779 15.7429 9.36848C15.6636 9.28918 15.556 9.24463 15.4438 9.24463H14.9652C14.7557 9.24441 14.555 9.16111 14.4069 9.01303C14.2588 8.86494 14.1755 8.66416 14.1753 8.45473V8.34309C14.1755 8.13367 14.2588 7.93288 14.4069 7.78479C14.555 7.63671 14.7557 7.55341 14.9652 7.55319H15.4438C15.556 7.55319 15.6636 7.50864 15.7429 7.42934C15.8222 7.35004 15.8667 7.24248 15.8667 7.13033C15.8667 7.01818 15.8222 6.91062 15.7429 6.83132C15.6636 6.75202 15.556 6.70747 15.4438 6.70747H14.9652C14.5315 6.70797 14.1158 6.88046 13.8092 7.18709C13.5025 7.49372 13.33 7.90945 13.3295 8.34309V8.45473C13.33 8.88837 13.5025 9.3041 13.8092 9.61073C14.1158 9.91736 14.5315 10.0898 14.9652 10.0904ZM11.2026 10.3018L11.2525 10.3011C11.3645 10.2981 11.4708 10.2506 11.5479 10.1691C11.625 10.0877 11.6665 9.97896 11.6635 9.86687C11.6592 9.75519 11.6113 9.64963 11.5301 9.57281C11.449 9.49598 11.3409 9.454 11.2292 9.45585C11.158 9.46367 11.0859 9.45662 11.0176 9.43515C10.9492 9.41368 10.8861 9.37825 10.8321 9.33111C10.8175 9.3146 10.8064 9.29524 10.7997 9.27424C10.7929 9.25324 10.7906 9.23106 10.7928 9.20911C10.7937 9.1835 10.8 9.15837 10.8113 9.13538C10.8226 9.11238 10.8386 9.09204 10.8583 9.0757L11.1846 8.83002L11.748 9.45014C11.7852 9.492 11.8303 9.52607 11.8807 9.55039C11.9311 9.5747 11.9858 9.58876 12.0417 9.59177C12.0975 9.59478 12.1534 9.58666 12.2062 9.5679C12.2589 9.54913 12.3074 9.52009 12.3488 9.48246C12.3902 9.44483 12.4237 9.39935 12.4474 9.34866C12.4711 9.29797 12.4845 9.24308 12.4869 9.18717C12.4892 9.13126 12.4804 9.07545 12.461 9.02296C12.4416 8.97047 12.412 8.92235 12.3739 8.8814L11.8633 8.3192L11.8664 8.31688C12.0426 8.1831 12.1705 7.99567 12.2308 7.78286C12.2911 7.57004 12.2805 7.34339 12.2007 7.1371C12.1386 6.95563 12.0229 6.79727 11.8689 6.68294C11.715 6.56861 11.5299 6.50369 11.3382 6.49675C11.1466 6.4898 10.9573 6.54117 10.7954 6.64407C10.6336 6.74696 10.5067 6.89653 10.4317 7.07303C10.3537 7.2444 10.3239 7.4338 10.3456 7.62084C10.3673 7.80787 10.4396 7.98544 10.5547 8.13441C10.5615 8.14308 10.5685 8.15133 10.5759 8.15957L10.6139 8.20122L10.3499 8.39976C10.2327 8.48909 10.1362 8.60269 10.067 8.73279C9.9978 8.86289 9.95755 9.0064 9.94899 9.15351C9.93829 9.29693 9.95872 9.44097 10.0089 9.57577C10.059 9.71058 10.1377 9.83295 10.2395 9.93453C10.3675 10.0568 10.5186 10.1523 10.684 10.2154C10.8493 10.2784 11.0257 10.3078 11.2026 10.3018ZM11.2028 7.41999C11.2099 7.39947 11.2225 7.38131 11.2393 7.36754C11.2561 7.35377 11.2764 7.34492 11.2979 7.34197C11.3472 7.33943 11.3846 7.36861 11.4079 7.43098C11.4231 7.46675 11.4265 7.50645 11.4175 7.54428C11.4085 7.5821 11.3876 7.61605 11.358 7.64115L11.2924 7.69041L11.2161 7.60647C11.1982 7.57911 11.1876 7.54765 11.1853 7.51506C11.183 7.48247 11.189 7.44961 11.2028 7.41999Z" fill="black"/>
</svg>
