<svg width="58" height="11" viewBox="0 0 58 11" fill="none" xmlns="http://www.w3.org/2000/svg">
<path d="M20.2629 0.0137204C19.7652 0.045738 18.9502 0.159255 18.3564 0.275682C17.9839 0.34845 17.2009 0.537644 17.0845 0.581305L17.0175 0.607501V2.37429L17.4337 2.27533C19.413 1.80962 21.4359 1.73394 22.3586 2.08904C22.6555 2.20256 22.8127 2.30443 23.0077 2.50236C23.2842 2.7847 23.421 3.15435 23.421 3.62588V3.83545H22.5857C20.8072 3.83545 19.4217 4.03629 18.4234 4.44088C17.1019 4.97353 16.4296 5.75069 16.316 6.87712C16.2083 7.97154 16.5751 8.86803 17.3784 9.46472C17.7801 9.76161 18.5689 10.0993 19.0259 10.172C19.0812 10.1808 19.2384 10.2128 19.3723 10.2448C19.8147 10.3467 20.9644 10.4456 21.7183 10.4456C22.0152 10.4456 22.6439 10.402 23.1969 10.3408C23.7441 10.2826 24.8705 10.0381 25.3712 9.86931L25.6186 9.7849L25.6273 6.68793C25.6361 3.29115 25.6273 3.0321 25.4847 2.47907C25.0539 0.799606 23.7441 0.0661128 21.0896 0.0166311C20.7315 0.00789902 20.359 0.00789903 20.2629 0.0137204ZM23.2842 5.48872L23.4792 5.50619V6.98482C23.4792 8.3674 23.4763 8.46345 23.4298 8.478C23.2144 8.53913 22.5682 8.64682 22.1694 8.68757C21.6048 8.74287 20.7636 8.73123 20.2688 8.65846C19.8991 8.60316 19.3664 8.43143 19.1248 8.29172C18.9036 8.16074 18.6504 7.90751 18.5631 7.72413C18.5107 7.62226 18.4874 7.51456 18.4787 7.35157C18.4525 6.90623 18.5835 6.58314 18.9124 6.27461C19.3781 5.83219 20.1523 5.59642 21.5145 5.48872C21.7416 5.46835 23.0892 5.46835 23.2842 5.48872ZM31.993 0.0166311C31.699 0.0370059 30.9772 0.147612 30.7763 0.202915C30.6599 0.234933 30.5144 0.275682 30.4532 0.290236C30.3921 0.304789 30.2291 0.365914 30.0923 0.421217C29.0095 0.869463 28.2877 1.53892 27.8162 2.53729C27.6037 2.98553 27.4843 3.37848 27.3737 3.9839C27.3184 4.30116 27.3097 4.4467 27.3097 5.11907C27.3097 5.95152 27.3505 6.33865 27.5105 6.94407C27.8686 8.30918 28.6457 9.30464 29.81 9.88386C31.2537 10.6086 33.5793 10.6261 35.1249 9.92752C36.6239 9.24933 37.5641 7.76197 37.7125 5.83801C37.8144 4.49327 37.6456 3.40758 37.1915 2.48489C36.5482 1.18382 35.3956 0.377556 33.7976 0.112684C33.1806 0.0108097 32.5722 -0.0241185 31.993 0.0166311ZM33.1689 1.76013C34.2517 1.98426 34.9095 2.62461 35.2355 3.77142C35.3374 4.13234 35.3694 4.35356 35.3985 4.87166C35.4189 5.21512 35.381 5.86711 35.3257 6.19602C35.2413 6.67046 34.9968 7.31082 34.7727 7.63681C34.2808 8.35284 33.4978 8.73705 32.5315 8.73705C31.5593 8.73996 30.8433 8.41106 30.331 7.72995C29.7809 6.99646 29.5102 5.66337 29.6645 4.45834C29.8798 2.79925 30.7036 1.88529 32.1385 1.71356C32.4063 1.68154 32.9011 1.70192 33.1689 1.76013ZM42.9954 0.0137204C42.9488 0.0195418 42.7305 0.045738 42.5151 0.0719342C41.5488 0.188362 40.3903 0.52018 39.5055 0.930587L39.4211 0.971337L39.4385 4.40595C39.4502 6.29499 39.4589 8.38195 39.4589 9.03976V10.2419H41.671L41.6769 6.23386L41.6856 2.22875L41.9185 2.14725C42.4307 1.9697 42.9605 1.88238 43.5484 1.87656C43.9268 1.87365 44.0141 1.88238 44.2033 1.9406C44.7709 2.11815 45.1377 2.4587 45.3589 3.00882L45.4404 3.21257L45.4491 6.72868L45.4549 10.2419H47.6671V2.52855L47.8242 2.42668C48.0513 2.28115 48.4733 2.10359 48.7993 2.01336C49.0438 1.94642 49.134 1.93477 49.5445 1.93477C49.9025 1.93186 50.0538 1.94351 50.1994 1.98426C50.8135 2.15017 51.2123 2.51982 51.4102 3.11069C51.4626 3.26205 51.4655 3.45124 51.4742 6.75487L51.483 10.2419H53.6922L53.6864 6.31827L53.6776 2.39757L53.5961 2.13561C53.3866 1.46324 53.0431 0.997533 52.4813 0.622054C52.0855 0.354271 51.6314 0.18254 51.058 0.0777555C50.5283 -0.0212079 49.6842 -0.0124758 49.0525 0.0952197C48.1793 0.240754 47.4255 0.511448 46.8375 0.892748C46.6541 1.00918 46.6279 1.01791 46.5726 0.98298C46.5406 0.959694 46.3893 0.860731 46.2408 0.758857C45.5219 0.272772 44.6778 0.0370059 43.5775 0.0108097C43.3068 0.00498834 43.0449 0.00498834 42.9954 0.0137204ZM0.516818 0.77341C0.723477 1.0441 0.909761 1.28278 0.930136 1.30607C0.950511 1.32935 1.12224 1.55347 1.31435 1.80088C1.50354 2.04829 1.7102 2.31607 1.77424 2.39757C1.83536 2.47616 1.97798 2.65954 2.08859 2.80507C2.1992 2.94769 2.37966 3.18346 2.49318 3.32899C2.60378 3.47162 2.79298 3.71612 2.90649 3.86747C3.02292 4.01883 3.27615 4.34773 3.47117 4.59514C3.66618 4.84546 3.84082 5.07541 3.8612 5.10742C3.89904 5.16855 3.75641 5.36357 2.64162 6.77816C2.53393 6.91496 2.38257 7.10998 2.30398 7.21476C2.22539 7.31955 2.15263 7.40978 2.14389 7.41851C2.13225 7.42724 2.04202 7.54367 1.93723 7.68047C1.83536 7.81728 1.69856 7.99483 1.63452 8.07342C1.57049 8.15491 1.48317 8.26552 1.43951 8.32082C1.39585 8.37613 1.20665 8.62063 1.01746 8.86512C0.828262 9.10671 0.52555 9.49383 0.347998 9.72669C0.167536 9.95663 0.0132691 10.1691 0.0016263 10.1953C-0.0158378 10.239 0.0889469 10.2419 1.23285 10.2419H2.48153L2.77551 9.85767C2.93851 9.64519 3.13935 9.3774 3.22667 9.2668C3.31399 9.15328 3.55849 8.83602 3.77097 8.5595C3.98345 8.28007 4.20466 7.99192 4.26287 7.91624C4.32109 7.84056 4.55394 7.53785 4.77515 7.24678C5.16228 6.74323 5.18265 6.71995 5.23213 6.76943C5.25833 6.79853 5.54649 7.17401 5.87248 7.60771C6.19848 8.03849 6.55359 8.51002 6.66419 8.65555C6.7748 8.79818 7.08915 9.21441 7.36276 9.57824L7.8634 10.2419H9.18485C10.2356 10.2419 10.4976 10.2331 10.4772 10.204C10.4102 10.1225 9.72624 9.23478 9.3624 8.76034C9.14701 8.478 8.92871 8.19566 8.87632 8.13163C8.82683 8.06759 8.47464 7.61644 8.09916 7.12744C7.72077 6.63845 7.39477 6.21931 7.3744 6.19602C7.35694 6.16983 7.30163 6.09997 7.25506 6.03593C7.20558 5.9719 7.15901 5.91369 7.15028 5.90495C7.14154 5.89622 7.00474 5.72158 6.84757 5.51783C6.65546 5.2646 6.57396 5.13362 6.59142 5.11034C6.60598 5.08996 6.72241 4.94443 6.84757 4.78143C6.97272 4.62134 7.10953 4.4467 7.15028 4.39431C7.21722 4.30407 7.6189 3.78888 8.15155 3.11069C8.28253 2.94187 8.5998 2.53729 8.85594 2.20838C9.10917 1.87947 9.33329 1.59131 9.35367 1.56803C9.37404 1.54474 9.54286 1.32644 9.72915 1.08776C9.91834 0.846177 10.1337 0.569662 10.2123 0.467788L10.3579 0.287325H7.80518L7.4821 0.715196C6.55359 1.94933 5.28744 3.60551 5.27288 3.60551C5.26997 3.60551 4.7053 2.85746 4.01838 1.94642L2.7726 0.287325H0.138429L0.516818 0.77341ZM12.1858 5.2646V10.2419H14.3979L14.4037 5.34319C14.4095 2.6508 14.4095 0.412485 14.4037 0.365914L14.395 0.287325H12.1858V5.2646ZM55.7879 5.2646V10.2419H58V0.287325H55.7879V5.2646ZM39.3483 2.9506C39.3483 2.99718 39.3541 3.01464 39.3629 2.98553C39.3687 2.95934 39.3687 2.91859 39.3629 2.89821C39.3541 2.88075 39.3483 2.90112 39.3483 2.9506Z" fill="#FF7B30"/>
</svg>
